<svg width="32" height="32" viewBox="0 0 32 32" fill="none" xmlns="http://www.w3.org/2000/svg">
<path fill-rule="evenodd" clip-rule="evenodd" d="M29.09 16C29.09 23.2294 23.2294 29.09 16 29.09C8.77063 29.09 2.91003 23.2294 2.91003 16C2.91003 8.77063 8.77063 2.91003 16 2.91003C23.2294 2.91003 29.09 8.77063 29.09 16ZM18.4475 11.4241C19.7594 11.4241 20.8272 10.3562 20.8272 9.0443C20.8272 7.7324 19.7594 6.66452 18.4475 6.66452C17.1356 6.66452 16.0677 7.7324 16.0677 9.0443C16.0677 10.3562 17.1356 11.4241 18.4475 11.4241ZM18.4475 7.51496C19.2906 7.51496 19.9768 8.20111 19.9768 9.0443C19.9768 9.88749 19.2906 10.5736 18.4475 10.5736C17.6043 10.5736 16.9181 9.88749 16.9181 9.0443C16.9181 8.20111 17.6043 7.51496 18.4475 7.51496ZM18.8727 20.6146V18.3387C19.9816 18.1382 20.8272 17.167 20.8272 16C20.8272 14.6881 19.7594 13.6202 18.4475 13.6202C17.2805 13.6202 16.3093 14.4659 16.1087 15.5748H15.0336C14.8403 14.7002 14.06 14.0455 13.125 14.0455C12.045 14.0455 11.1704 14.9201 11.1704 16C11.1704 17.08 12.045 17.9546 13.125 17.9546C14.0575 17.9546 14.8379 17.2998 15.0336 16.4252H16.1087C16.2851 17.3965 17.051 18.1648 18.0247 18.3411V20.617C16.9157 20.8176 16.0701 21.7888 16.0701 22.9557C16.0701 24.2676 17.138 25.3355 18.4499 25.3355C19.7618 25.3355 20.8297 24.2676 20.8297 22.9557C20.8297 21.7888 19.984 20.8176 18.8751 20.617L18.8727 20.6146ZM16.9181 15.9976C16.9181 15.1544 17.6043 14.4683 18.4475 14.4683C19.2906 14.4683 19.9768 15.1544 19.9768 15.9976C19.9768 16.8408 19.2906 17.5269 18.4475 17.5269C17.6043 17.5269 16.9181 16.8408 16.9181 15.9976ZM18.4475 24.4827C17.6043 24.4827 16.9181 23.7965 16.9181 22.9533C16.9181 22.1101 17.6043 21.424 18.4475 21.424C19.2906 21.424 19.9768 22.1101 19.9768 22.9533C19.9768 23.7965 19.2906 24.4827 18.4475 24.4827ZM20.7765 19.223C20.7765 17.9111 21.8444 16.8432 23.1563 16.8432C24.4682 16.8432 25.5361 17.9111 25.5361 19.223C25.5361 20.5349 24.4682 21.6028 23.1563 21.6028C21.8444 21.6028 20.7765 20.5349 20.7765 19.223ZM21.6269 19.223C21.6269 20.0662 22.3131 20.7523 23.1563 20.7523C23.9995 20.7523 24.6856 20.0662 24.6856 19.223C24.6856 18.3798 23.9995 17.6937 23.1563 17.6937C22.3131 17.6937 21.6269 18.3798 21.6269 19.223ZM13.8747 7.23966C12.8774 6.82656 11.734 7.30016 11.3209 8.29746C10.9078 9.29476 11.3814 10.4381 12.3787 10.8512C13.376 11.2643 14.5194 10.7907 14.9325 9.79342C15.3456 8.79611 14.872 7.65276 13.8747 7.23966ZM15.0561 22.6411C15.2291 23.7066 14.5055 24.7106 13.44 24.8835C12.3745 25.0565 11.3705 24.3329 11.1975 23.2674C11.0246 22.2019 11.7481 21.1979 12.8137 21.0249C13.8792 20.852 14.8832 21.5755 15.0561 22.6411ZM8.41855 14.4659C9.35114 14.4659 10.1315 13.8111 10.3272 12.9365H20.82C21.0205 14.0455 21.9918 14.8911 23.1587 14.8911C24.4706 14.8911 25.5385 13.8232 25.5385 12.5113C25.5385 11.1994 24.4706 10.1315 23.1587 10.1315C21.9918 10.1315 21.0205 10.9771 20.82 12.0861H10.3248C10.1315 11.2115 9.35114 10.5567 8.41614 10.5567C7.33618 10.5567 6.46158 11.4313 6.46158 12.5113C6.46158 13.5913 7.33618 14.4659 8.41614 14.4659H8.41855ZM23.1587 10.9795C24.0019 10.9795 24.688 11.6657 24.688 12.5089C24.688 13.3521 24.0019 14.0382 23.1587 14.0382C22.3155 14.0382 21.6294 13.3521 21.6294 12.5089C21.6294 11.6657 22.3155 10.9795 23.1587 10.9795ZM10.3731 19.223C10.3731 20.3025 9.49803 21.1776 8.41856 21.1776C7.33908 21.1776 6.46399 20.3025 6.46399 19.223C6.46399 18.1435 7.33908 17.2684 8.41856 17.2684C9.49803 17.2684 10.3731 18.1435 10.3731 19.223Z" fill="#072B55"></path>
</svg>