<svg width="32" height="32" viewBox="0 0 32 32" fill="none" xmlns="http://www.w3.org/2000/svg">
<path fill-rule="evenodd" clip-rule="evenodd" d="M3.58579 4.58579C3.96086 4.21071 4.46957 4 5 4H21C21.5304 4 22.0391 4.21071 22.4142 4.58579C22.7893 4.96086 23 5.46957 23 6V17C23 17.5304 22.7893 18.0391 22.4142 18.4142C22.0391 18.7893 21.5304 19 21 19H9.30118L4.62871 22.7776C4.32906 23.0199 3.91687 23.0684 3.56914 22.9024C3.2214 22.7364 3 22.3853 3 22V6C3 5.46957 3.21071 4.96086 3.58579 4.58579ZM21 6L5 6L5 19.9056L8.31879 17.2224C8.49674 17.0785 8.71866 17 8.9475 17H21V6Z" fill="#072B55"></path>
<path fill-rule="evenodd" clip-rule="evenodd" d="M21 11C21 10.4477 21.4477 10 22 10H27C27.5304 10 28.0391 10.2107 28.4142 10.5858C28.7893 10.9609 29 11.4696 29 12V28C29 28.3853 28.7786 28.7364 28.4309 28.9024C28.0831 29.0684 27.6709 29.0199 27.3713 28.7776L22.6988 25H11C10.4696 25 9.96086 24.7893 9.58579 24.4142C9.21071 24.0391 9 23.5304 9 23V18C9 17.4477 9.44772 17 10 17C10.5523 17 11 17.4477 11 18V23H23.0525C23.2813 23 23.5033 23.0785 23.6812 23.2224L27 25.9056V12H22C21.4477 12 21 11.5523 21 11Z" fill="#072B55"></path>
</svg>