<svg width="32" height="32" viewBox="0 0 32 32" fill="none" xmlns="http://www.w3.org/2000/svg">
<path d="M28.7075 9.70745L12.7075 25.7074C12.6146 25.8004 12.5043 25.8742 12.3829 25.9245C12.2615 25.9748 12.1314 26.0007 12 26.0007C11.8686 26.0007 11.7385 25.9748 11.6171 25.9245C11.4957 25.8742 11.3854 25.8004 11.2925 25.7074L4.29251 18.7074C4.10487 18.5198 3.99945 18.2653 3.99945 17.9999C3.99945 17.7346 4.10487 17.4801 4.29251 17.2924C4.48015 17.1048 4.73464 16.9994 5.00001 16.9994C5.26537 16.9994 5.51987 17.1048 5.70751 17.2924L12 23.5862L27.2925 8.29245C27.4801 8.1048 27.7346 7.99939 28 7.99939C28.2654 7.99939 28.5199 8.1048 28.7075 8.29245C28.8951 8.48009 29.0006 8.73458 29.0006 8.99995C29.0006 9.26531 28.8951 9.51981 28.7075 9.70745Z" fill="#072B55"></path>
</svg>