<svg width="32" height="32" viewBox="0 0 32 32" fill="none" xmlns="http://www.w3.org/2000/svg">
<g id="Size=M">
<g id="Vector">
<path fill-rule="evenodd" clip-rule="evenodd" d="M3.21029 9.13487C3.47546 8.65041 4.08315 8.47262 4.56762 8.73778L16 14.995L27.4324 8.73778C27.9169 8.47262 28.5245 8.65041 28.7897 9.13487C29.0549 9.61934 28.8771 10.227 28.3926 10.4922L16.4801 17.0122C16.181 17.1759 15.819 17.1759 15.5199 17.0122L3.60738 10.4922C3.12292 10.227 2.94513 9.61934 3.21029 9.13487Z" fill="#072B55"></path>
<path fill-rule="evenodd" clip-rule="evenodd" d="M15.04 2.24772C15.3343 2.08667 15.6645 2.00226 16 2.00226C16.3355 2.00226 16.6657 2.08667 16.96 2.24772L27.96 8.27022C28.2741 8.4421 28.5364 8.69517 28.7193 9.003C28.9022 9.31083 28.9992 9.66213 29 10.0202L29 10.0225L29 21.9798C28.9992 22.3378 28.9022 22.6891 28.7193 22.997C28.5364 23.3047 28.2743 23.5578 27.9602 23.7296L16.9602 29.7521C16.6659 29.9132 16.3355 29.9977 16 29.9977C15.6645 29.9977 15.3343 29.9133 15.04 29.7523L4.04 23.7298C3.72596 23.5579 3.46358 23.3047 3.28069 22.997C3.09775 22.6891 3.00082 22.3379 3 21.9798L3 21.9775V10.0225L3 10.0202C3.00082 9.66213 3.09775 9.31083 3.28069 9.003C3.46359 8.69525 3.72573 8.44223 4.03977 8.27035L15.04 2.24772ZM16 4.00226L5.00023 10.0246L5 21.9752L16 27.9977L26.9998 21.9754L27 10.0248L16 4.00226Z" fill="#072B55"></path>
<path fill-rule="evenodd" clip-rule="evenodd" d="M16 15.1362C16.5523 15.1362 17 15.584 17 16.1362V29C17 29.5523 16.5523 30 16 30C15.4477 30 15 29.5523 15 29V16.1362C15 15.584 15.4477 15.1362 16 15.1362Z" fill="#072B55"></path>
</g>
</g>
</svg>