<svg width="32" height="32" viewBox="0 0 32 32" fill="none" xmlns="http://www.w3.org/2000/svg">
<path d="M28.825 6.19122C28.6711 5.83561 28.4161 5.53309 28.0916 5.32129C27.7671 5.10949 27.3875 4.99775 27 4.99997H5.00003C4.61294 5.00073 4.23439 5.11381 3.91031 5.32548C3.58622 5.53715 3.33053 5.83832 3.17424 6.19245C3.01795 6.54658 2.96778 6.93846 3.02983 7.32054C3.09187 7.70262 3.26346 8.05849 3.52378 8.34497L3.53378 8.35622L12 17.3962V27C11.9999 27.3619 12.0981 27.7172 12.284 28.0277C12.4699 28.3383 12.7367 28.5926 13.0558 28.7635C13.3749 28.9344 13.7343 29.0155 14.0959 28.9981C14.4575 28.9808 14.8075 28.8656 15.1088 28.665L19.1088 25.9975C19.383 25.8148 19.6078 25.5673 19.7633 25.2768C19.9188 24.9863 20.0001 24.6619 20 24.3325V17.3962L28.4675 8.35622L28.4775 8.34497C28.7406 8.0598 28.9138 7.70346 28.9756 7.32043C29.0374 6.93741 28.9851 6.54466 28.825 6.19122ZM18.5425 16.035C18.1951 16.4032 18.0011 16.89 18 17.3962V24.3325L14 27V17.3962C14.0012 16.8882 13.808 16.3989 13.46 16.0287L5.00003 6.99997H27L18.5425 16.035Z" fill="#072B55"></path>
</svg>