<svg width="32" height="32" viewBox="0 0 32 32" fill="none" xmlns="http://www.w3.org/2000/svg">
<path d="M12.0325 4.63125C11.9994 4.50403 11.9917 4.37154 12.0099 4.24134C12.028 4.11114 12.0717 3.9858 12.1383 3.87249C12.2049 3.75917 12.2933 3.66011 12.3982 3.58097C12.5032 3.50183 12.6227 3.44416 12.75 3.41126C14.8818 2.86145 17.1182 2.86145 19.25 3.41126C19.4861 3.47171 19.692 3.61632 19.829 3.81791C19.966 4.0195 20.0247 4.26418 19.994 4.50598C19.9633 4.74778 19.8453 4.97003 19.6623 5.13098C19.4793 5.29193 19.2437 5.38048 19 5.38001C18.9156 5.37956 18.8317 5.36865 18.75 5.3475C16.9462 4.88227 15.0538 4.88227 13.25 5.3475C12.9936 5.41365 12.7214 5.37539 12.4932 5.24112C12.2649 5.10684 12.0992 4.88752 12.0325 4.63125ZM6.72375 6.8925C5.18206 8.46241 4.06384 10.3978 3.47375 12.5175C3.40297 12.7731 3.43663 13.0464 3.56732 13.2771C3.69801 13.5079 3.91502 13.6774 4.17063 13.7481C4.42623 13.8189 4.69948 13.7853 4.93027 13.6546C5.16105 13.5239 5.33047 13.3069 5.40125 13.0513C5.90009 11.257 6.84632 9.61871 8.15125 8.29C8.32194 8.09801 8.41218 7.84769 8.40328 7.59095C8.39438 7.3342 8.28701 7.09073 8.10344 6.91102C7.91987 6.7313 7.67418 6.62913 7.4173 6.62568C7.16043 6.62224 6.91208 6.71778 6.72375 6.8925ZM5.40125 18.9438C5.36612 18.8172 5.30641 18.6988 5.22552 18.5953C5.14464 18.4918 5.04416 18.4053 4.92982 18.3406C4.81549 18.276 4.68955 18.2345 4.55918 18.2185C4.4288 18.2025 4.29656 18.2124 4.17 18.2475C4.04344 18.2826 3.92504 18.3423 3.82155 18.4232C3.71807 18.5041 3.63153 18.6046 3.56688 18.7189C3.50222 18.8333 3.46072 18.9592 3.44475 19.0896C3.42877 19.22 3.43862 19.3522 3.47375 19.4788C4.0642 21.5983 5.18236 23.5336 6.72375 25.1038C6.90974 25.2929 7.16323 25.4004 7.42848 25.4026C7.69373 25.4048 7.94899 25.3016 8.13813 25.1156C8.32726 24.9296 8.43476 24.6761 8.43699 24.4109C8.43922 24.1457 8.33598 23.8904 8.15 23.7013C6.84668 22.373 5.90102 20.7363 5.40125 18.9438ZM18.75 26.6525C16.9462 27.1182 15.0538 27.1182 13.25 26.6525C13.1221 26.6174 12.9885 26.6081 12.857 26.6251C12.7255 26.642 12.5987 26.685 12.4839 26.7515C12.3692 26.818 12.2688 26.9066 12.1886 27.0122C12.1085 27.1179 12.0501 27.2384 12.017 27.3668C11.9838 27.4952 11.9765 27.6289 11.9955 27.7601C12.0145 27.8914 12.0594 28.0175 12.1277 28.1312C12.1959 28.2449 12.286 28.344 12.3929 28.4225C12.4997 28.5011 12.6211 28.5576 12.75 28.5888C14.8818 29.1386 17.1182 29.1386 19.25 28.5888C19.5032 28.5192 19.7189 28.3529 19.8505 28.1257C19.9821 27.8985 20.0191 27.6287 19.9534 27.3744C19.8878 27.1202 19.7248 26.902 19.4996 26.7669C19.2745 26.6318 19.0052 26.5908 18.75 26.6525ZM27.8313 18.25C27.7046 18.2149 27.5723 18.2051 27.4418 18.2211C27.3114 18.2371 27.1854 18.2788 27.071 18.3435C26.9567 18.4083 26.8562 18.495 26.7754 18.5986C26.6946 18.7023 26.635 18.8208 26.6 18.9475C26.1014 20.7415 25.1552 22.3795 23.85 23.7075C23.758 23.8012 23.6853 23.9122 23.6362 24.034C23.5871 24.1558 23.5624 24.2861 23.5636 24.4174C23.5649 24.5487 23.5919 24.6786 23.6433 24.7994C23.6947 24.9203 23.7694 25.0299 23.8631 25.1219C23.9569 25.2139 24.0678 25.2865 24.1896 25.3357C24.3114 25.3848 24.4417 25.4095 24.573 25.4082C24.7044 25.407 24.8342 25.38 24.9551 25.3286C25.0759 25.2772 25.1855 25.2025 25.2775 25.1088C26.8194 23.539 27.9377 21.6036 28.5275 19.4838C28.563 19.357 28.5732 19.2245 28.5574 19.0939C28.5416 18.9632 28.5002 18.8369 28.4355 18.7223C28.3708 18.6077 28.2842 18.507 28.1805 18.4259C28.0768 18.3449 27.9581 18.2851 27.8313 18.25ZM26.5988 13.0575C26.6339 13.1841 26.6936 13.3025 26.7745 13.406C26.8554 13.5094 26.9558 13.596 27.0702 13.6606C27.1845 13.7253 27.3105 13.7668 27.4408 13.7828C27.5712 13.7987 27.7034 13.7889 27.83 13.7538C27.9566 13.7186 28.075 13.6589 28.1785 13.578C28.2819 13.4971 28.3685 13.3967 28.4331 13.2823C28.4978 13.168 28.5393 13.042 28.5553 12.9117C28.5712 12.7813 28.5614 12.6491 28.5263 12.5225C27.9364 10.4027 26.8182 8.46724 25.2763 6.89751C25.1842 6.80386 25.0745 6.72926 24.9536 6.67798C24.8327 6.6267 24.7029 6.59974 24.5715 6.59864C24.4402 6.59754 24.3099 6.62232 24.1882 6.67156C24.0664 6.7208 23.9555 6.79354 23.8619 6.88563C23.7682 6.97772 23.6936 7.08735 23.6424 7.20827C23.5911 7.32919 23.5641 7.45902 23.563 7.59036C23.5619 7.72169 23.5867 7.85196 23.6359 7.97372C23.6852 8.09549 23.7579 8.20636 23.85 8.3C25.1538 9.62744 26.0995 11.2639 26.5988 13.0563V13.0575Z" fill="#072B55"></path>
</svg>