<svg width="32" height="32" viewBox="0 0 32 32" fill="none" xmlns="http://www.w3.org/2000/svg">
<path fill-rule="evenodd" clip-rule="evenodd" d="M20.047 2.10548C20.4485 2.30611 20.6672 2.74968 20.5817 3.19031L18.9409 11.6549L25.3609 14.1388C25.668 14.2576 25.8969 14.52 25.973 14.8404C26.049 15.1608 25.9625 15.4981 25.7416 15.7423L13.1416 29.6709C12.8405 30.0037 12.3545 30.0952 11.953 29.8945C11.5515 29.6939 11.3329 29.2503 11.4183 28.8097L13.0591 20.3451L6.63918 17.8612C6.33207 17.7424 6.10314 17.48 6.02707 17.1596C5.95099 16.8392 6.03752 16.5019 6.25842 16.2577L18.8584 2.32916C19.1595 1.9963 19.6455 1.90485 20.047 2.10548ZM8.71736 16.5208L14.5609 18.7817C15.0123 18.9563 15.2739 19.4293 15.1817 19.9046L14.0642 25.6697L23.2827 15.4792L17.4392 13.2184C16.9877 13.0437 16.7262 12.5707 16.8183 12.0954L17.9358 6.3303L8.71736 16.5208Z" fill="#072B55"></path>
</svg>