<svg width="32" height="32" viewBox="0 0 32 32" fill="none" xmlns="http://www.w3.org/2000/svg">
<g id="Size=M">
<g id="Vector">
<path fill-rule="evenodd" clip-rule="evenodd" d="M9.58557 16.8282C8.80453 17.6092 8.80453 18.8756 9.58557 19.6566L12.3433 22.4143C13.1243 23.1954 14.3907 23.1954 15.1717 22.4143L22.4143 15.1718C23.1953 14.3908 23.1953 13.1244 22.4143 12.3434L19.6565 9.58566C18.8755 8.80461 17.6092 8.80461 16.8281 9.58566L9.58557 16.8282ZM8.17136 21.0708C6.60926 19.5087 6.60926 16.9761 8.17136 15.414L15.4139 8.17144C16.976 6.60935 19.5087 6.60935 21.0708 8.17144L23.8285 10.9292C25.3906 12.4913 25.3906 15.0239 23.8285 16.586L16.5859 23.8286C15.0238 25.3907 12.4912 25.3907 10.9291 23.8286L8.17136 21.0708Z" fill="#072B55"></path>
<path fill-rule="evenodd" clip-rule="evenodd" d="M10.2929 10.2929C10.6834 9.90237 11.3166 9.90237 11.7071 10.2929L21.7071 20.2929C22.0976 20.6834 22.0976 21.3166 21.7071 21.7071C21.3166 22.0976 20.6834 22.0976 20.2929 21.7071L10.2929 11.7071C9.90237 11.3166 9.90237 10.6834 10.2929 10.2929Z" fill="#072B55"></path>
<path fill-rule="evenodd" clip-rule="evenodd" d="M29.7071 2.29289C30.0976 2.68342 30.0976 3.31658 29.7071 3.70711L22.4496 10.9646C22.0591 11.3551 21.4259 11.3551 21.0354 10.9646C20.6449 10.5741 20.6449 9.94092 21.0354 9.55039L28.2929 2.29289C28.6834 1.90237 29.3166 1.90237 29.7071 2.29289Z" fill="#072B55"></path>
<path fill-rule="evenodd" clip-rule="evenodd" d="M10.9646 21.0354C11.3551 21.4259 11.3551 22.0591 10.9646 22.4496L3.70711 29.7071C3.31658 30.0976 2.68342 30.0976 2.29289 29.7071C1.90237 29.3166 1.90237 28.6834 2.29289 28.2929L9.55039 21.0354C9.94092 20.6449 10.5741 20.6449 10.9646 21.0354Z" fill="#072B55"></path>
<path fill-rule="evenodd" clip-rule="evenodd" d="M11.6286 3.07152C12.1414 2.86641 12.7234 3.11583 12.9285 3.62861L13.9285 6.12861C14.1336 6.64139 13.8842 7.22336 13.3714 7.42848C12.8586 7.63359 12.2766 7.38417 12.0715 6.87139L11.0715 4.37139C10.8664 3.85861 11.1158 3.27664 11.6286 3.07152Z" fill="#072B55"></path>
<path fill-rule="evenodd" clip-rule="evenodd" d="M3.07152 11.6286C3.27664 11.1158 3.85861 10.8664 4.37139 11.0715L6.87139 12.0715C7.38417 12.2766 7.63359 12.8586 7.42848 13.3714C7.22336 13.8842 6.64139 14.1336 6.12861 13.9285L3.62861 12.9285C3.11583 12.7234 2.86641 12.1414 3.07152 11.6286Z" fill="#072B55"></path>
<path fill-rule="evenodd" clip-rule="evenodd" d="M24.5715 18.6286C24.7766 18.1158 25.3586 17.8664 25.8714 18.0715L28.3714 19.0715C28.8842 19.2766 29.1336 19.8586 28.9285 20.3714C28.7234 20.8842 28.1414 21.1336 27.6286 20.9285L25.1286 19.9285C24.6158 19.7234 24.3664 19.1414 24.5715 18.6286Z" fill="#072B55"></path>
<path fill-rule="evenodd" clip-rule="evenodd" d="M18.6286 24.5715C19.1414 24.3664 19.7234 24.6158 19.9285 25.1286L20.9285 27.6286C21.1336 28.1414 20.8842 28.7234 20.3714 28.9285C19.8586 29.1336 19.2766 28.8842 19.0715 28.3714L18.0715 25.8714C17.8664 25.3586 18.1158 24.7766 18.6286 24.5715Z" fill="#072B55"></path>
</g>
</g>
</svg>