<svg width="32" height="32" viewBox="0 0 32 32" fill="none" xmlns="http://www.w3.org/2000/svg">
<path fill-rule="evenodd" clip-rule="evenodd" d="M17.1816 7.4042C20.4702 4.11561 24.3765 3.91731 26.1076 4.01929L26.1129 4.01961C26.598 4.05081 27.0551 4.25759 27.3988 4.60128C27.7425 4.94498 27.9492 5.40207 27.9804 5.88712L27.9808 5.8925C28.0828 7.62378 27.8818 11.5324 24.5959 14.8184L24 15.4143V22.7063C23.9998 23.236 23.7894 23.7445 23.415 24.1193L19.1209 28.4134L19.1201 28.4142C18.8573 28.6764 18.5268 28.8603 18.1654 28.9453C17.8041 29.0303 17.4262 29.0131 17.0741 28.8955C16.722 28.778 16.4096 28.5648 16.1718 28.2797C15.934 27.9947 15.7802 27.6492 15.7276 27.2817L15.7271 27.2783L15.0559 22.4702L9.52985 16.9441L4.72175 16.273L4.71837 16.2725C4.35091 16.2199 4.00533 16.0661 3.72031 15.8283C3.4353 15.5905 3.22209 15.278 3.10455 14.9259C2.98701 14.5738 2.96978 14.196 3.05478 13.8346C3.13979 13.4733 3.32368 13.1427 3.58587 12.88L7.88039 8.58545C8.25518 8.21109 8.76356 8.00031 9.29329 8.00006H16.5858L17.1816 7.4042ZM17.7076 9.70669C17.7073 9.70701 17.7069 9.70733 17.7066 9.70765L11.4142 16.0001L16 20.5858L23.1816 13.4042C25.8923 10.6935 26.0693 7.46932 25.9845 6.01551C24.5305 5.93074 21.3089 6.10537 18.5959 8.81842L17.7076 9.70669ZM17.0592 22.355L17.7074 26.9984L22 22.7058V17.4143L17.0592 22.355ZM9.64503 14.9408L14.5858 10.0001L9.29421 10.0001L5.00163 14.2926L9.64503 14.9408ZM9.43243 19.7653C9.6615 20.2678 9.43981 20.8609 8.93727 21.09C8.52477 21.278 7.80121 21.7064 7.17938 22.5845C6.66915 23.3051 6.19478 24.3739 6.04712 25.9529C7.62612 25.8053 8.695 25.3309 9.41553 24.8207C10.2936 24.1989 10.722 23.4753 10.9101 23.0628C11.1391 22.5603 11.7322 22.3386 12.2348 22.5676C12.7373 22.7967 12.959 23.3898 12.7299 23.8923C12.4342 24.5411 11.8057 25.5788 10.5713 26.4529C9.32846 27.333 7.53738 28.0001 5 28.0001C4.44772 28.0001 4 27.5523 4 27.0001C4 24.4627 4.66705 22.6716 5.54718 21.4287C6.42129 20.1943 7.45898 19.5659 8.10773 19.2701C8.61027 19.0411 9.20335 19.2628 9.43243 19.7653Z" fill="#072B55"></path>
</svg>