<svg xmlns="http://www.w3.org/2000/svg" xmlns:xlink="http://www.w3.org/1999/xlink" width="211" height="60" viewBox="0 0 211 60">
  <defs>
    <clipPath id="clip-logo">
      <rect width="211" height="60"></rect>
    </clipPath>
  </defs>
  <g id="logo" clip-path="url(#clip-logo)">
    <rect width="211" height="60" fill="#fff"></rect>
    <g id="Layer_2_00000047040908796161773860000005964086390694625978_" transform="translate(1)">
      <g id="Logos">
        <g id="DT_Boomi_Logo_Positive_2-color_RGB">
          <g id="Group_375" data-name="Group 375">
            <g id="Group_374" data-name="Group 374">
              <g id="Group_373" data-name="Group 373">
                <g id="Group_372" data-name="Group 372">
                  <path id="Path_169" data-name="Path 169" d="M206.8,9.8a4.7,4.7,0,1,1-4.7-4.7h0a4.76,4.76,0,0,1,4.7,4.7" fill="#f47a67"></path>
                  <path id="Path_170" data-name="Path 170" d="M64.6,20.8c11.1,0,19.3,8.3,19.3,19s-8.3,19-19.3,19-19.3-8.3-19.3-19,8.2-19,19.3-19m0,30.9A11.527,11.527,0,0,0,76.4,40.4v-.6a11.855,11.855,0,1,0-23.7-.7v.7A11.611,11.611,0,0,0,64,51.7h.6" fill="#023d59"></path>
                  <path id="Path_171" data-name="Path 171" d="M107.7,20.8c11.1,0,19.3,8.3,19.3,19s-8.3,19-19.3,19-19.3-8.3-19.3-19,8.2-19,19.3-19m0,30.9a11.611,11.611,0,0,0,11.9-11.3v-.6a11.855,11.855,0,1,0-23.7-.7v.7a11.528,11.528,0,0,0,11.2,11.9h.6" fill="#023d59"></path>
                  <path id="Path_172" data-name="Path 172" d="M198.4,57.2V21.7a.789.789,0,0,1,.8-.8h5.9a.789.789,0,0,1,.8.8V57.2a.789.789,0,0,1-.8.8h-5.9a.789.789,0,0,1-.8-.8" fill="#023d59"></path>
                  <path id="Path_173" data-name="Path 173" d="M176.4,20.8a15.145,15.145,0,0,0-13,6.8c-2.3-4.2-6.7-6.8-13-6.8s-9.9,3.5-11,5.4V20.4a.789.789,0,0,0-.8-.8h0a.6.6,0,0,0-.4.1l-6.1,3.5a.52.52,0,0,0-.2.4V57.2a.789.789,0,0,0,.8.8h5.9a.789.789,0,0,0,.8-.8h0V37.5c0-6,4.4-9.5,9.9-9.5s8.6,3.5,8.6,9.5V57.2a.789.789,0,0,0,.8.8h5.9a.789.789,0,0,0,.8-.8h0V37c.2-5.7,4.6-9,9.9-9s8.6,3.5,8.6,9.5V57.2a.789.789,0,0,0,.8.8h5.9a.789.789,0,0,0,.8-.8V35.9c0-8.9-5.2-15.1-15-15.1" fill="#023d59"></path>
                  <path id="Path_174" data-name="Path 174" d="M20.9,20.8A19.6,19.6,0,0,0,7.5,26V.8C7.6.4,7.2,0,6.7,0h0a.756.756,0,0,0-.4.1L.2,3.6A.52.52,0,0,0,0,4V57.2a.86.86,0,0,0,.8.8H6.7a.789.789,0,0,0,.8-.8V53.7a19.223,19.223,0,0,0,13.4,5.1c11.1,0,19.3-8.3,19.3-19s-8.2-19-19.3-19m0,30.8A11.527,11.527,0,0,1,9.1,40.3v-.5A11.611,11.611,0,0,1,20.4,27.9H21A11.527,11.527,0,0,1,32.8,39.2h0v.6A11.528,11.528,0,0,1,21.6,51.7l-.7-.1" fill="#023d59"></path>
                </g>
              </g>
            </g>
          </g>
        </g>
      </g>
    </g>
  </g>
</svg>