<svg width="624" height="220" viewBox="0 0 624 220" fill="none" xmlns="http://www.w3.org/2000/svg">
<g clip-path="url(#clip0_594_58187)">
<rect width="624" height="220" fill="#033D58"></rect>
<circle opacity="0.5" cx="310" cy="289" r="331" fill="url(#paint0_radial_594_58187)"></circle>
<path d="M4.2011 48.1806C4.78496 46.6231 6.41318 45.7038 8.07096 45.8804C8.76183 45.954 9.4521 46.0125 10.1461 45.9737C27.4554 45.0066 48.8944 54.4219 71.7171 67.3158C50.8243 51.2555 31.7024 37.0484 9.21248 51.6484C7.60606 52.6913 5.33007 52.323 4.39562 50.7017C4.02022 50.0504 3.88462 49.2698 4.1085 48.4647C4.13491 48.3697 4.16574 48.2749 4.2011 48.1806Z" fill="#E6E6E6"></path>
<path d="M119.644 9.65848C121.071 10.5226 121.658 12.166 121.183 13.6311L121.129 13.7964C120.652 15.2671 119.614 16.5027 118.239 17.316C98.5573 28.9562 121.345 43.8528 84.9189 67.8979C102.558 49.9668 117.067 8.4421 119.271 9.45978C119.398 9.5184 119.522 9.58458 119.644 9.65848Z" fill="#E6E6E6"></path>
<path d="M149.811 100.682C149.077 102.13 147.429 102.879 145.842 102.604L145.662 102.573C144.069 102.298 142.654 101.466 141.641 100.265C127.138 83.0812 114.273 106.345 84.8179 74.8389C105.653 89.3491 150.776 98.1056 149.974 100.305C149.928 100.432 149.874 100.558 149.811 100.682Z" fill="#E6E6E6"></path>
<path d="M123.305 99.6093C122.55 100.008 121.331 99.9517 120.348 99.5198L120.237 99.4711C119.25 99.0378 118.486 98.4299 118.054 97.7652C111.872 88.251 99.0376 94.425 85.8345 76.3896C96.658 86.196 124.426 98.8309 123.483 99.5003C123.429 99.5388 123.369 99.5753 123.305 99.6093Z" fill="#E6E6E6"></path>
<path d="M129.265 61.6597C129.078 62.4609 128.227 63.2904 127.235 63.7036L127.123 63.7502C126.127 64.1653 125.141 64.3059 124.331 64.1724C112.735 62.2626 109.093 75.4845 86.127 72.9209C101.03 71.7224 129.395 60.3459 129.297 61.4605C129.292 61.5247 129.281 61.5912 129.265 61.6597Z" fill="#E6E6E6"></path>
<path d="M13.2069 111.356C12.3744 109.957 12.6684 108.244 13.8125 107.163L13.9415 107.041C15.0893 105.955 16.6165 105.327 18.2326 105.222C41.3632 103.726 28.6079 80.4079 72.6533 75.4287C48.2166 83.3909 14.8815 113.58 13.4386 111.698C13.3555 111.59 13.2781 111.476 13.2069 111.356Z" fill="#E6E6E6"></path>
<path d="M106.228 111.105C105.372 111.647 104.274 111.539 103.544 110.907L103.461 110.836C102.728 110.202 102.27 109.328 102.141 108.382C100.294 94.8408 85.9944 103.22 81.1265 77.5156C87.1263 91.5803 107.574 110.036 106.436 110.956C106.37 111.008 106.301 111.058 106.228 111.105Z" fill="#E6E6E6"></path>
<path d="M80.3231 133.376C79.0125 133.387 77.9093 132.55 77.5787 131.401L77.5413 131.271C77.2089 130.119 77.3461 128.893 77.8886 127.808C85.6526 112.275 64.2406 111.724 77.5142 81.3428C73.8393 100.162 82.5401 133.133 80.6543 133.356C80.5457 133.369 80.4352 133.376 80.3231 133.376Z" fill="url(#paint1_linear_594_58187)"></path>
<path d="M32.8888 112.151C32.0445 111.198 32.0192 109.857 32.7394 108.883L32.8206 108.773C33.543 107.794 34.6238 107.113 35.8496 106.817C53.3937 102.589 40.1812 86.5723 73.2769 76.9019C55.6771 86.2187 34.5008 113.617 33.117 112.38C33.0373 112.308 32.9611 112.232 32.8888 112.151Z" fill="url(#paint2_linear_594_58187)"></path>
<path d="M43.5321 98.2438C42.998 97.7699 42.9837 97.0567 43.4413 96.5095L43.4929 96.4477C43.9519 95.8983 44.6378 95.4931 45.415 95.2877C56.5397 92.3476 48.1848 84.337 69.1727 77.8892C58.0067 83.5409 44.552 98.9614 43.6764 98.3568C43.6259 98.322 43.5777 98.2844 43.5321 98.2438Z" fill="url(#paint3_linear_594_58187)"></path>
<path d="M59.0871 108.377C58.4118 108.112 58.1346 107.449 58.3605 106.784L58.386 106.709C58.6125 106.041 59.1047 105.433 59.7564 104.981C69.0839 98.5146 58.2987 93.8042 75.5627 80.7607C67.1995 89.7798 60.3074 108.709 59.264 108.435C59.2039 108.419 59.1449 108.4 59.0871 108.377Z" fill="#E6E6E6"></path>
<path d="M13.5745 63.4521L15.271 68.4126H20.7612L16.3196 71.4783L18.0161 76.4387L13.5745 73.373L9.1328 76.4387L10.8294 71.4783L6.3877 68.4126H11.8779L13.5745 63.4521Z" fill="url(#paint4_linear_594_58187)"></path>
<path d="M89.2346 4L90.9312 8.96042H96.4214L91.9797 12.0261L93.6763 16.9866L89.2346 13.9208L84.7929 16.9866L86.4895 12.0261L82.0479 8.96042H87.5381L89.2346 4Z" fill="#E6E6E6"></path>
<path d="M129.399 57.2422L131.096 62.2026H136.586L132.144 65.2683L133.841 70.2287L129.399 67.163L124.958 70.2287L126.654 65.2683L122.212 62.2026H127.703L129.399 57.2422Z" fill="url(#paint5_linear_594_58187)"></path>
<path d="M48.1321 111.37L49.8287 116.331H55.3189L50.8772 119.396L52.5738 124.357L48.1321 121.291L43.6904 124.357L45.387 119.396L40.9453 116.331H46.4355L48.1321 111.37Z" fill="url(#paint6_linear_594_58187)"></path>
<path d="M78.9592 57.2422L80.6558 62.2026H86.146L81.7043 65.2683L83.4009 70.2287L78.9592 67.163L74.5176 70.2287L76.2141 65.2683L71.7725 62.2026H77.2627L78.9592 57.2422Z" fill="url(#paint7_linear_594_58187)"></path>
<path d="M121.348 4L123.045 8.96042H128.535L124.093 12.0261L125.79 16.9866L121.348 13.9208L116.907 16.9866L118.603 12.0261L114.162 8.96042H119.652L121.348 4Z" fill="#E6E6E6"></path>
<path d="M10.6971 102.035L12.8486 106.834L18.3173 106.373L14.1783 109.799L16.3298 114.598L11.6202 111.917L7.4812 115.344L8.70955 110.26L4 107.58L9.46872 107.119L10.6971 102.035Z" fill="#E6E6E6"></path>
<path d="M57.6638 10.3899C58.6541 9.92672 59.7671 10.2392 60.3973 11.0784L60.4684 11.173C61.1013 12.015 61.402 13.0803 61.3493 14.1697C60.5941 29.7628 77.011 22.7926 76.984 52.6288C73.553 35.7247 56.0634 11.3615 57.4195 10.522C57.4976 10.4737 57.5791 10.4295 57.6638 10.3899Z" fill="url(#paint8_linear_594_58187)"></path>
<path d="M43.3484 33.5032C43.7874 32.9825 44.5077 32.9107 45.096 33.2782L45.1624 33.3197C45.7531 33.6883 46.215 34.2734 46.4817 34.9573C50.2995 44.7466 57.7696 36.5516 65.8838 54.9458C59.3197 45.3429 42.6998 34.4821 43.245 33.6426C43.2764 33.5943 43.3109 33.5477 43.3484 33.5032Z" fill="#E6E6E6"></path>
<path d="M30.7085 61.9579C30.7686 61.2933 31.3253 60.8531 32.0294 60.8479L32.1089 60.8473C32.8155 60.8417 33.5418 61.084 34.1638 61.5116C43.0662 67.6319 44.4793 56.8748 61.9889 67.8782C50.9129 63.3633 30.7423 63.1142 30.7041 62.1284C30.7019 62.0717 30.7033 62.0147 30.7085 61.9579Z" fill="#E6E6E6"></path>
<path d="M498.168 144.955C498.657 143.652 500.018 142.883 501.405 143.031C501.983 143.093 502.56 143.141 503.141 143.109C517.619 142.3 535.551 150.175 554.641 160.96C537.166 147.527 521.171 135.644 502.36 147.856C501.016 148.728 499.113 148.42 498.331 147.064C498.017 146.519 497.903 145.866 498.091 145.193C498.113 145.113 498.139 145.034 498.168 144.955Z" fill="#E6E6E6"></path>
<path d="M594.728 112.734C595.922 113.457 596.413 114.832 596.015 116.057L595.97 116.195C595.571 117.426 594.703 118.459 593.553 119.139C577.09 128.876 596.151 141.336 565.683 161.448C580.437 146.45 592.572 111.717 594.416 112.568C594.522 112.617 594.626 112.672 594.728 112.734Z" fill="#E6E6E6"></path>
<path d="M619.966 188.868C619.352 190.079 617.974 190.706 616.646 190.476L616.496 190.45C615.163 190.22 613.979 189.524 613.132 188.519C601.001 174.146 590.241 193.605 565.603 167.252C583.03 179.389 620.773 186.713 620.102 188.553C620.064 188.659 620.018 188.764 619.966 188.868Z" fill="#E6E6E6"></path>
<path d="M597.79 187.971C597.158 188.304 596.139 188.257 595.317 187.896L595.224 187.855C594.398 187.493 593.759 186.984 593.398 186.428C588.227 178.47 577.492 183.634 566.448 168.549C575.501 176.751 598.728 187.32 597.939 187.879C597.894 187.912 597.844 187.942 597.79 187.971Z" fill="#E6E6E6"></path>
<path d="M602.776 156.226C602.62 156.897 601.908 157.59 601.078 157.936L600.984 157.975C600.151 158.322 599.327 158.44 598.649 158.328C588.95 156.731 585.904 167.79 566.694 165.646C579.16 164.643 602.885 155.127 602.803 156.06C602.799 156.114 602.79 156.169 602.776 156.226Z" fill="#E6E6E6"></path>
<path d="M505.7 197.797C505.004 196.627 505.25 195.194 506.207 194.29L506.315 194.188C507.275 193.279 508.552 192.754 509.904 192.667C529.252 191.415 518.582 171.911 555.424 167.746C534.984 174.406 507.101 199.657 505.894 198.083C505.825 197.993 505.76 197.897 505.7 197.797Z" fill="#E6E6E6"></path>
<path d="M583.508 197.587C582.792 198.041 581.873 197.951 581.263 197.422L581.194 197.363C580.58 196.832 580.197 196.101 580.089 195.31C578.544 183.984 566.584 190.993 562.512 169.492C567.53 181.256 584.634 196.694 583.682 197.463C583.627 197.507 583.569 197.549 583.508 197.587Z" fill="#E6E6E6"></path>
<path d="M561.838 216.216C560.741 216.224 559.819 215.524 559.542 214.564L559.511 214.455C559.233 213.491 559.347 212.466 559.801 211.558C566.295 198.566 548.386 198.105 559.488 172.693C556.414 188.434 563.692 216.012 562.115 216.198C562.024 216.209 561.931 216.215 561.838 216.216Z" fill="url(#paint9_linear_594_58187)"></path>
<path d="M522.165 198.461C521.459 197.664 521.438 196.543 522.04 195.727L522.108 195.635C522.713 194.817 523.617 194.247 524.642 194C539.316 190.463 528.265 177.066 555.947 168.978C541.226 176.771 523.514 199.687 522.356 198.652C522.289 198.593 522.226 198.529 522.165 198.461Z" fill="url(#paint10_linear_594_58187)"></path>
<path d="M531.068 186.83C530.621 186.433 530.609 185.837 530.992 185.379L531.035 185.327C531.419 184.868 531.993 184.529 532.643 184.357C541.948 181.898 534.96 175.197 552.515 169.804C543.175 174.532 531.921 187.43 531.189 186.924C531.147 186.895 531.106 186.864 531.068 186.83Z" fill="url(#paint11_linear_594_58187)"></path>
<path d="M544.081 195.305C543.516 195.083 543.284 194.529 543.473 193.972L543.494 193.91C543.684 193.351 544.095 192.842 544.64 192.464C552.442 187.056 543.421 183.116 557.861 172.206C550.866 179.749 545.101 195.582 544.229 195.353C544.178 195.34 544.129 195.324 544.081 195.305Z" fill="#E6E6E6"></path>
<path d="M506.012 157.728L507.431 161.877H512.023L508.308 164.441L509.727 168.59L506.012 166.026L502.297 168.59L503.716 164.441L500.001 161.877H504.593L506.012 157.728Z" fill="url(#paint12_linear_594_58187)"></path>
<path d="M569.289 108L570.708 112.149H575.3L571.585 114.713L573.004 118.862L569.289 116.298L565.574 118.862L566.993 114.713L563.278 112.149H567.87L569.289 108Z" fill="#E6E6E6"></path>
<path d="M602.888 152.534L604.307 156.683H608.899L605.184 159.248L606.603 163.397L602.888 160.832L599.173 163.397L600.592 159.248L596.877 156.683H601.469L602.888 152.534Z" fill="url(#paint13_linear_594_58187)"></path>
<path d="M534.917 197.809L536.336 201.958H540.928L537.213 204.522L538.632 208.672L534.917 206.107L531.201 208.672L532.62 204.522L528.905 201.958H533.497L534.917 197.809Z" fill="url(#paint14_linear_594_58187)"></path>
<path d="M560.701 152.534L562.12 156.683H566.713L562.997 159.248L564.416 163.397L560.701 160.832L556.986 163.397L558.405 159.248L554.69 156.683H559.282L560.701 152.534Z" fill="url(#paint15_linear_594_58187)"></path>
<path d="M596.149 108L597.569 112.149H602.161L598.446 114.713L599.865 118.862L596.149 116.298L592.434 118.862L593.853 114.713L590.138 112.149H594.73L596.149 108Z" fill="#E6E6E6"></path>
<path d="M503.602 190.001L505.401 194.015L509.976 193.629L506.513 196.495L508.313 200.509L504.374 198.267L500.912 201.133L501.939 196.881L498 194.639L502.574 194.253L503.602 190.001Z" fill="#E6E6E6"></path>
<path d="M542.888 113.346C543.716 112.959 544.647 113.22 545.174 113.922L545.234 114.001C545.763 114.705 546.015 115.596 545.97 116.508C545.339 129.55 559.07 123.72 559.048 148.676C556.178 134.537 541.549 114.159 542.683 113.457C542.749 113.416 542.817 113.379 542.888 113.346Z" fill="url(#paint16_linear_594_58187)"></path>
<path d="M530.909 132.677C531.277 132.241 531.879 132.181 532.371 132.489L532.427 132.523C532.921 132.832 533.307 133.321 533.53 133.893C536.724 142.081 542.972 135.227 549.759 150.612C544.268 142.58 530.367 133.496 530.823 132.793C530.849 132.753 530.878 132.714 530.909 132.677Z" fill="#E6E6E6"></path>
<path d="M520.344 156.479C520.394 155.923 520.86 155.555 521.449 155.55L521.515 155.55C522.106 155.545 522.714 155.748 523.234 156.106C530.68 161.225 531.862 152.227 546.508 161.431C537.244 157.654 520.372 157.446 520.34 156.621C520.338 156.574 520.34 156.526 520.344 156.479Z" fill="#E6E6E6"></path>
<path d="M273.232 113.484C275.36 113.484 277.199 113.885 278.748 114.688C280.316 115.472 281.511 116.601 282.332 118.076C283.172 119.551 283.592 121.287 283.592 123.284C283.592 125.281 283.172 127.017 282.332 128.492C281.511 129.948 280.316 131.068 278.748 131.852C277.199 132.617 275.36 133 273.232 133H267.156V113.484H273.232ZM273.232 130.9C275.752 130.9 277.675 130.237 279 128.912C280.325 127.568 280.988 125.692 280.988 123.284C280.988 120.857 280.316 118.963 278.972 117.6C277.647 116.237 275.733 115.556 273.232 115.556H269.704V130.9H273.232ZM293.645 133.252C292.208 133.252 290.901 132.925 289.725 132.272C288.568 131.619 287.653 130.695 286.981 129.5C286.328 128.287 286.001 126.887 286.001 125.3C286.001 123.732 286.337 122.351 287.009 121.156C287.7 119.943 288.633 119.019 289.809 118.384C290.985 117.731 292.301 117.404 293.757 117.404C295.213 117.404 296.529 117.731 297.705 118.384C298.881 119.019 299.805 119.933 300.477 121.128C301.168 122.323 301.513 123.713 301.513 125.3C301.513 126.887 301.158 128.287 300.449 129.5C299.758 130.695 298.816 131.619 297.621 132.272C296.426 132.925 295.101 133.252 293.645 133.252ZM293.645 131.012C294.56 131.012 295.418 130.797 296.221 130.368C297.024 129.939 297.668 129.295 298.153 128.436C298.657 127.577 298.909 126.532 298.909 125.3C298.909 124.068 298.666 123.023 298.181 122.164C297.696 121.305 297.061 120.671 296.277 120.26C295.493 119.831 294.644 119.616 293.729 119.616C292.796 119.616 291.937 119.831 291.153 120.26C290.388 120.671 289.772 121.305 289.305 122.164C288.838 123.023 288.605 124.068 288.605 125.3C288.605 126.551 288.829 127.605 289.277 128.464C289.744 129.323 290.36 129.967 291.125 130.396C291.89 130.807 292.73 131.012 293.645 131.012ZM312.339 117.376C314.206 117.376 315.718 117.945 316.875 119.084C318.032 120.204 318.611 121.828 318.611 123.956V133H316.091V124.32C316.091 122.789 315.708 121.623 314.943 120.82C314.178 119.999 313.132 119.588 311.807 119.588C310.463 119.588 309.39 120.008 308.587 120.848C307.803 121.688 307.411 122.911 307.411 124.516V133H304.863V117.656H307.411V119.84C307.915 119.056 308.596 118.449 309.455 118.02C310.332 117.591 311.294 117.376 312.339 117.376ZM336.773 124.74C336.773 125.225 336.745 125.739 336.689 126.28H324.425C324.519 127.792 325.032 128.977 325.965 129.836C326.917 130.676 328.065 131.096 329.409 131.096C330.511 131.096 331.425 130.844 332.153 130.34C332.9 129.817 333.423 129.127 333.721 128.268H336.465C336.055 129.743 335.233 130.947 334.001 131.88C332.769 132.795 331.239 133.252 329.409 133.252C327.953 133.252 326.647 132.925 325.489 132.272C324.351 131.619 323.455 130.695 322.801 129.5C322.148 128.287 321.821 126.887 321.821 125.3C321.821 123.713 322.139 122.323 322.773 121.128C323.408 119.933 324.295 119.019 325.433 118.384C326.591 117.731 327.916 117.404 329.409 117.404C330.865 117.404 332.153 117.721 333.273 118.356C334.393 118.991 335.252 119.868 335.849 120.988C336.465 122.089 336.773 123.34 336.773 124.74ZM334.141 124.208C334.141 123.237 333.927 122.407 333.497 121.716C333.068 121.007 332.48 120.475 331.733 120.12C331.005 119.747 330.193 119.56 329.297 119.56C328.009 119.56 326.908 119.971 325.993 120.792C325.097 121.613 324.584 122.752 324.453 124.208H334.141ZM343.44 113.484L343.132 127.484H341.004L340.696 113.484H343.44ZM342.18 133.168C341.695 133.168 341.284 133 340.948 132.664C340.612 132.328 340.444 131.917 340.444 131.432C340.444 130.947 340.612 130.536 340.948 130.2C341.284 129.864 341.695 129.696 342.18 129.696C342.647 129.696 343.039 129.864 343.356 130.2C343.692 130.536 343.86 130.947 343.86 131.432C343.86 131.917 343.692 132.328 343.356 132.664C343.039 133 342.647 133.168 342.18 133.168Z" fill="white"></path>
<path d="M195.477 154.305L198.516 148.578H199.945L196.141 155.57V160H194.812V155.633L191 148.578H192.453L195.477 154.305ZM208.703 155.703C208.703 156.406 208.612 157.034 208.43 157.586C208.247 158.138 207.984 158.604 207.641 158.984C207.297 159.365 206.88 159.656 206.391 159.859C205.906 160.057 205.357 160.156 204.742 160.156C204.169 160.156 203.643 160.057 203.164 159.859C202.69 159.656 202.279 159.365 201.93 158.984C201.586 158.604 201.318 158.138 201.125 157.586C200.938 157.034 200.844 156.406 200.844 155.703C200.844 154.766 201.003 153.969 201.32 153.312C201.638 152.651 202.091 152.148 202.68 151.805C203.273 151.456 203.979 151.281 204.797 151.281C205.578 151.281 206.26 151.456 206.844 151.805C207.432 152.154 207.888 152.659 208.211 153.32C208.539 153.977 208.703 154.771 208.703 155.703ZM202.188 155.703C202.188 156.391 202.279 156.987 202.461 157.492C202.643 157.997 202.924 158.388 203.305 158.664C203.685 158.94 204.174 159.078 204.773 159.078C205.367 159.078 205.854 158.94 206.234 158.664C206.62 158.388 206.904 157.997 207.086 157.492C207.268 156.987 207.359 156.391 207.359 155.703C207.359 155.021 207.268 154.432 207.086 153.938C206.904 153.438 206.622 153.052 206.242 152.781C205.862 152.51 205.37 152.375 204.766 152.375C203.875 152.375 203.221 152.669 202.805 153.258C202.393 153.846 202.188 154.661 202.188 155.703ZM218.016 151.438V160H216.953L216.766 158.797H216.695C216.518 159.094 216.289 159.344 216.008 159.547C215.727 159.75 215.409 159.901 215.055 160C214.706 160.104 214.333 160.156 213.938 160.156C213.26 160.156 212.693 160.047 212.234 159.828C211.776 159.609 211.43 159.271 211.195 158.812C210.966 158.354 210.852 157.766 210.852 157.047V151.438H212.164V156.953C212.164 157.667 212.326 158.201 212.648 158.555C212.971 158.904 213.464 159.078 214.125 159.078C214.76 159.078 215.266 158.958 215.641 158.719C216.021 158.479 216.294 158.128 216.461 157.664C216.628 157.195 216.711 156.622 216.711 155.945V151.438H218.016ZM224.648 151.281C224.82 151.281 225 151.292 225.188 151.312C225.375 151.328 225.542 151.352 225.688 151.383L225.523 152.586C225.383 152.549 225.227 152.521 225.055 152.5C224.883 152.479 224.721 152.469 224.57 152.469C224.227 152.469 223.901 152.539 223.594 152.68C223.292 152.815 223.026 153.013 222.797 153.273C222.568 153.529 222.388 153.839 222.258 154.203C222.128 154.562 222.062 154.964 222.062 155.406V160H220.758V151.438H221.836L221.977 153.016H222.031C222.208 152.698 222.422 152.409 222.672 152.148C222.922 151.883 223.211 151.672 223.539 151.516C223.872 151.359 224.242 151.281 224.648 151.281ZM235.352 151.281C235.523 151.281 235.703 151.292 235.891 151.312C236.078 151.328 236.245 151.352 236.391 151.383L236.227 152.586C236.086 152.549 235.93 152.521 235.758 152.5C235.586 152.479 235.424 152.469 235.273 152.469C234.93 152.469 234.604 152.539 234.297 152.68C233.995 152.815 233.729 153.013 233.5 153.273C233.271 153.529 233.091 153.839 232.961 154.203C232.831 154.562 232.766 154.964 232.766 155.406V160H231.461V151.438H232.539L232.68 153.016H232.734C232.911 152.698 233.125 152.409 233.375 152.148C233.625 151.883 233.914 151.672 234.242 151.516C234.576 151.359 234.945 151.281 235.352 151.281ZM241.305 151.281C242.034 151.281 242.659 151.443 243.18 151.766C243.701 152.089 244.099 152.542 244.375 153.125C244.651 153.703 244.789 154.38 244.789 155.156V155.961H238.875C238.891 156.966 239.141 157.732 239.625 158.258C240.109 158.784 240.792 159.047 241.672 159.047C242.214 159.047 242.693 158.997 243.109 158.898C243.526 158.799 243.958 158.654 244.406 158.461V159.602C243.974 159.794 243.544 159.935 243.117 160.023C242.695 160.112 242.195 160.156 241.617 160.156C240.794 160.156 240.076 159.99 239.461 159.656C238.852 159.318 238.378 158.823 238.039 158.172C237.701 157.521 237.531 156.724 237.531 155.781C237.531 154.859 237.685 154.062 237.992 153.391C238.305 152.714 238.742 152.193 239.305 151.828C239.872 151.464 240.539 151.281 241.305 151.281ZM241.289 152.344C240.596 152.344 240.044 152.57 239.633 153.023C239.221 153.477 238.977 154.109 238.898 154.922H243.43C243.424 154.411 243.344 153.964 243.188 153.578C243.036 153.188 242.805 152.885 242.492 152.672C242.18 152.453 241.779 152.344 241.289 152.344ZM250.422 160.156C249.651 160.156 248.971 159.997 248.383 159.68C247.794 159.362 247.336 158.878 247.008 158.227C246.68 157.576 246.516 156.755 246.516 155.766C246.516 154.729 246.688 153.883 247.031 153.227C247.38 152.565 247.859 152.076 248.469 151.758C249.078 151.44 249.771 151.281 250.547 151.281C250.974 151.281 251.385 151.326 251.781 151.414C252.182 151.497 252.51 151.604 252.766 151.734L252.375 152.82C252.115 152.716 251.812 152.622 251.469 152.539C251.13 152.456 250.812 152.414 250.516 152.414C249.922 152.414 249.427 152.542 249.031 152.797C248.641 153.052 248.346 153.427 248.148 153.922C247.956 154.417 247.859 155.026 247.859 155.75C247.859 156.443 247.953 157.034 248.141 157.523C248.333 158.013 248.617 158.388 248.992 158.648C249.372 158.904 249.846 159.031 250.414 159.031C250.867 159.031 251.276 158.984 251.641 158.891C252.005 158.792 252.336 158.677 252.633 158.547V159.703C252.346 159.849 252.026 159.961 251.672 160.039C251.323 160.117 250.906 160.156 250.422 160.156ZM255.961 151.438V160H254.664V151.438H255.961ZM255.328 148.234C255.542 148.234 255.724 148.305 255.875 148.445C256.031 148.581 256.109 148.794 256.109 149.086C256.109 149.372 256.031 149.586 255.875 149.727C255.724 149.867 255.542 149.938 255.328 149.938C255.104 149.938 254.917 149.867 254.766 149.727C254.62 149.586 254.547 149.372 254.547 149.086C254.547 148.794 254.62 148.581 254.766 148.445C254.917 148.305 255.104 148.234 255.328 148.234ZM262.734 151.281C263.802 151.281 264.654 151.648 265.289 152.383C265.924 153.117 266.242 154.221 266.242 155.695C266.242 156.669 266.096 157.487 265.805 158.148C265.513 158.81 265.102 159.31 264.57 159.648C264.044 159.987 263.422 160.156 262.703 160.156C262.25 160.156 261.852 160.096 261.508 159.977C261.164 159.857 260.87 159.695 260.625 159.492C260.38 159.289 260.177 159.068 260.016 158.828H259.922C259.938 159.031 259.956 159.276 259.977 159.562C260.003 159.849 260.016 160.099 260.016 160.312V163.828H258.711V151.438H259.781L259.953 152.703H260.016C260.182 152.443 260.385 152.206 260.625 151.992C260.865 151.773 261.156 151.602 261.5 151.477C261.849 151.346 262.26 151.281 262.734 151.281ZM262.508 152.375C261.914 152.375 261.435 152.49 261.07 152.719C260.711 152.948 260.448 153.292 260.281 153.75C260.115 154.203 260.026 154.773 260.016 155.461V155.711C260.016 156.435 260.094 157.047 260.25 157.547C260.411 158.047 260.674 158.427 261.039 158.688C261.409 158.948 261.904 159.078 262.523 159.078C263.055 159.078 263.497 158.935 263.852 158.648C264.206 158.362 264.469 157.964 264.641 157.453C264.818 156.938 264.906 156.346 264.906 155.68C264.906 154.669 264.708 153.867 264.312 153.273C263.922 152.674 263.32 152.375 262.508 152.375ZM271.805 151.281C272.534 151.281 273.159 151.443 273.68 151.766C274.201 152.089 274.599 152.542 274.875 153.125C275.151 153.703 275.289 154.38 275.289 155.156V155.961H269.375C269.391 156.966 269.641 157.732 270.125 158.258C270.609 158.784 271.292 159.047 272.172 159.047C272.714 159.047 273.193 158.997 273.609 158.898C274.026 158.799 274.458 158.654 274.906 158.461V159.602C274.474 159.794 274.044 159.935 273.617 160.023C273.195 160.112 272.695 160.156 272.117 160.156C271.294 160.156 270.576 159.99 269.961 159.656C269.352 159.318 268.878 158.823 268.539 158.172C268.201 157.521 268.031 156.724 268.031 155.781C268.031 154.859 268.185 154.062 268.492 153.391C268.805 152.714 269.242 152.193 269.805 151.828C270.372 151.464 271.039 151.281 271.805 151.281ZM271.789 152.344C271.096 152.344 270.544 152.57 270.133 153.023C269.721 153.477 269.477 154.109 269.398 154.922H273.93C273.924 154.411 273.844 153.964 273.688 153.578C273.536 153.188 273.305 152.885 272.992 152.672C272.68 152.453 272.279 152.344 271.789 152.344ZM282.945 151.438V160H281.648V151.438H282.945ZM282.312 148.234C282.526 148.234 282.708 148.305 282.859 148.445C283.016 148.581 283.094 148.794 283.094 149.086C283.094 149.372 283.016 149.586 282.859 149.727C282.708 149.867 282.526 149.938 282.312 149.938C282.089 149.938 281.901 149.867 281.75 149.727C281.604 149.586 281.531 149.372 281.531 149.086C281.531 148.794 281.604 148.581 281.75 148.445C281.901 148.305 282.089 148.234 282.312 148.234ZM291.234 157.656C291.234 158.203 291.096 158.664 290.82 159.039C290.549 159.409 290.159 159.688 289.648 159.875C289.143 160.062 288.539 160.156 287.836 160.156C287.237 160.156 286.719 160.109 286.281 160.016C285.844 159.922 285.461 159.789 285.133 159.617V158.422C285.482 158.594 285.898 158.75 286.383 158.891C286.867 159.031 287.362 159.102 287.867 159.102C288.607 159.102 289.143 158.982 289.477 158.742C289.81 158.503 289.977 158.177 289.977 157.766C289.977 157.531 289.909 157.326 289.773 157.148C289.643 156.966 289.422 156.792 289.109 156.625C288.797 156.453 288.365 156.266 287.812 156.062C287.266 155.854 286.792 155.648 286.391 155.445C285.995 155.237 285.688 154.984 285.469 154.688C285.255 154.391 285.148 154.005 285.148 153.531C285.148 152.807 285.44 152.253 286.023 151.867C286.612 151.477 287.383 151.281 288.336 151.281C288.852 151.281 289.333 151.333 289.781 151.438C290.234 151.536 290.656 151.672 291.047 151.844L290.609 152.883C290.255 152.732 289.878 152.604 289.477 152.5C289.076 152.396 288.667 152.344 288.25 152.344C287.651 152.344 287.19 152.443 286.867 152.641C286.549 152.839 286.391 153.109 286.391 153.453C286.391 153.719 286.464 153.938 286.609 154.109C286.76 154.281 287 154.443 287.328 154.594C287.656 154.745 288.089 154.922 288.625 155.125C289.161 155.323 289.625 155.529 290.016 155.742C290.406 155.951 290.706 156.206 290.914 156.508C291.128 156.805 291.234 157.188 291.234 157.656ZM301.531 151.281C302.547 151.281 303.315 151.531 303.836 152.031C304.357 152.526 304.617 153.323 304.617 154.422V160H303.336V154.508C303.336 153.794 303.172 153.26 302.844 152.906C302.521 152.552 302.023 152.375 301.352 152.375C300.404 152.375 299.737 152.643 299.352 153.18C298.966 153.716 298.773 154.495 298.773 155.516V160H297.477V151.438H298.523L298.719 152.672H298.789C298.971 152.37 299.203 152.117 299.484 151.914C299.766 151.706 300.081 151.549 300.43 151.445C300.779 151.336 301.146 151.281 301.531 151.281ZM314.672 155.703C314.672 156.406 314.581 157.034 314.398 157.586C314.216 158.138 313.953 158.604 313.609 158.984C313.266 159.365 312.849 159.656 312.359 159.859C311.875 160.057 311.326 160.156 310.711 160.156C310.138 160.156 309.612 160.057 309.133 159.859C308.659 159.656 308.247 159.365 307.898 158.984C307.555 158.604 307.286 158.138 307.094 157.586C306.906 157.034 306.812 156.406 306.812 155.703C306.812 154.766 306.971 153.969 307.289 153.312C307.607 152.651 308.06 152.148 308.648 151.805C309.242 151.456 309.948 151.281 310.766 151.281C311.547 151.281 312.229 151.456 312.812 151.805C313.401 152.154 313.857 152.659 314.18 153.32C314.508 153.977 314.672 154.771 314.672 155.703ZM308.156 155.703C308.156 156.391 308.247 156.987 308.43 157.492C308.612 157.997 308.893 158.388 309.273 158.664C309.654 158.94 310.143 159.078 310.742 159.078C311.336 159.078 311.823 158.94 312.203 158.664C312.589 158.388 312.872 157.997 313.055 157.492C313.237 156.987 313.328 156.391 313.328 155.703C313.328 155.021 313.237 154.432 313.055 153.938C312.872 153.438 312.591 153.052 312.211 152.781C311.831 152.51 311.339 152.375 310.734 152.375C309.844 152.375 309.19 152.669 308.773 153.258C308.362 153.846 308.156 154.661 308.156 155.703ZM323.883 159.984L322.359 155C322.292 154.786 322.227 154.578 322.164 154.375C322.107 154.167 322.052 153.969 322 153.781C321.953 153.589 321.909 153.411 321.867 153.25C321.831 153.083 321.799 152.94 321.773 152.82H321.719C321.698 152.94 321.669 153.083 321.633 153.25C321.596 153.411 321.552 153.589 321.5 153.781C321.453 153.974 321.401 154.177 321.344 154.391C321.286 154.599 321.221 154.81 321.148 155.023L319.555 159.984H318.094L315.734 151.422H317.078L318.312 156.148C318.396 156.461 318.474 156.771 318.547 157.078C318.625 157.38 318.69 157.667 318.742 157.938C318.799 158.203 318.841 158.435 318.867 158.633H318.93C318.961 158.503 318.995 158.346 319.031 158.164C319.073 157.982 319.117 157.789 319.164 157.586C319.216 157.378 319.271 157.172 319.328 156.969C319.385 156.76 319.443 156.565 319.5 156.383L321.078 151.422H322.477L324 156.375C324.078 156.625 324.154 156.885 324.227 157.156C324.305 157.427 324.375 157.69 324.438 157.945C324.5 158.195 324.544 158.419 324.57 158.617H324.633C324.654 158.44 324.693 158.221 324.75 157.961C324.807 157.701 324.872 157.414 324.945 157.102C325.023 156.789 325.104 156.471 325.188 156.148L326.438 151.422H327.758L325.391 159.984H323.883ZM337.367 151.281C337.539 151.281 337.719 151.292 337.906 151.312C338.094 151.328 338.26 151.352 338.406 151.383L338.242 152.586C338.102 152.549 337.945 152.521 337.773 152.5C337.602 152.479 337.44 152.469 337.289 152.469C336.945 152.469 336.62 152.539 336.312 152.68C336.01 152.815 335.745 153.013 335.516 153.273C335.286 153.529 335.107 153.839 334.977 154.203C334.846 154.562 334.781 154.964 334.781 155.406V160H333.477V151.438H334.555L334.695 153.016H334.75C334.927 152.698 335.141 152.409 335.391 152.148C335.641 151.883 335.93 151.672 336.258 151.516C336.591 151.359 336.961 151.281 337.367 151.281ZM343.32 151.281C344.049 151.281 344.674 151.443 345.195 151.766C345.716 152.089 346.115 152.542 346.391 153.125C346.667 153.703 346.805 154.38 346.805 155.156V155.961H340.891C340.906 156.966 341.156 157.732 341.641 158.258C342.125 158.784 342.807 159.047 343.688 159.047C344.229 159.047 344.708 158.997 345.125 158.898C345.542 158.799 345.974 158.654 346.422 158.461V159.602C345.99 159.794 345.56 159.935 345.133 160.023C344.711 160.112 344.211 160.156 343.633 160.156C342.81 160.156 342.091 159.99 341.477 159.656C340.867 159.318 340.393 158.823 340.055 158.172C339.716 157.521 339.547 156.724 339.547 155.781C339.547 154.859 339.701 154.062 340.008 153.391C340.32 152.714 340.758 152.193 341.32 151.828C341.888 151.464 342.555 151.281 343.32 151.281ZM343.305 152.344C342.612 152.344 342.06 152.57 341.648 153.023C341.237 153.477 340.992 154.109 340.914 154.922H345.445C345.44 154.411 345.359 153.964 345.203 153.578C345.052 153.188 344.82 152.885 344.508 152.672C344.195 152.453 343.794 152.344 343.305 152.344ZM352.211 151.297C353.232 151.297 353.99 151.526 354.484 151.984C354.979 152.443 355.227 153.174 355.227 154.18V160H354.281L354.031 158.734H353.969C353.729 159.047 353.479 159.31 353.219 159.523C352.958 159.732 352.656 159.891 352.312 160C351.974 160.104 351.557 160.156 351.062 160.156C350.542 160.156 350.078 160.065 349.672 159.883C349.271 159.701 348.953 159.424 348.719 159.055C348.49 158.685 348.375 158.216 348.375 157.648C348.375 156.794 348.714 156.138 349.391 155.68C350.068 155.221 351.099 154.971 352.484 154.93L353.961 154.867V154.344C353.961 153.604 353.802 153.086 353.484 152.789C353.167 152.492 352.719 152.344 352.141 152.344C351.693 152.344 351.266 152.409 350.859 152.539C350.453 152.669 350.068 152.823 349.703 153L349.305 152.016C349.69 151.818 350.133 151.648 350.633 151.508C351.133 151.367 351.659 151.297 352.211 151.297ZM353.945 155.781L352.641 155.836C351.573 155.878 350.82 156.052 350.383 156.359C349.945 156.667 349.727 157.102 349.727 157.664C349.727 158.154 349.875 158.516 350.172 158.75C350.469 158.984 350.862 159.102 351.352 159.102C352.112 159.102 352.734 158.891 353.219 158.469C353.703 158.047 353.945 157.414 353.945 156.57V155.781ZM360.945 160.156C359.862 160.156 359.003 159.786 358.367 159.047C357.737 158.307 357.422 157.208 357.422 155.75C357.422 154.276 357.745 153.164 358.391 152.414C359.036 151.659 359.896 151.281 360.969 151.281C361.422 151.281 361.818 151.341 362.156 151.461C362.495 151.581 362.786 151.742 363.031 151.945C363.276 152.143 363.482 152.37 363.648 152.625H363.742C363.721 152.464 363.701 152.242 363.68 151.961C363.659 151.68 363.648 151.451 363.648 151.273V147.844H364.945V160H363.898L363.703 158.781H363.648C363.487 159.036 363.281 159.268 363.031 159.477C362.786 159.685 362.492 159.852 362.148 159.977C361.81 160.096 361.409 160.156 360.945 160.156ZM361.148 159.078C362.065 159.078 362.714 158.818 363.094 158.297C363.474 157.776 363.664 157.003 363.664 155.977V155.742C363.664 154.654 363.482 153.818 363.117 153.234C362.758 152.651 362.102 152.359 361.148 152.359C360.352 152.359 359.755 152.667 359.359 153.281C358.964 153.891 358.766 154.724 358.766 155.781C358.766 156.833 358.961 157.646 359.352 158.219C359.747 158.792 360.346 159.078 361.148 159.078ZM366.344 151.438H367.734L369.625 156.406C369.734 156.698 369.836 156.979 369.93 157.25C370.023 157.516 370.107 157.771 370.18 158.016C370.253 158.26 370.31 158.497 370.352 158.727H370.406C370.479 158.466 370.583 158.125 370.719 157.703C370.854 157.276 371 156.841 371.156 156.398L372.945 151.438H374.344L370.617 161.258C370.419 161.784 370.188 162.242 369.922 162.633C369.661 163.023 369.344 163.323 368.969 163.531C368.594 163.745 368.141 163.852 367.609 163.852C367.365 163.852 367.148 163.836 366.961 163.805C366.773 163.779 366.612 163.747 366.477 163.711V162.672C366.591 162.698 366.729 162.721 366.891 162.742C367.057 162.763 367.229 162.773 367.406 162.773C367.729 162.773 368.008 162.711 368.242 162.586C368.482 162.466 368.688 162.289 368.859 162.055C369.031 161.82 369.18 161.542 369.305 161.219L369.773 160.016L366.344 151.438ZM382.633 159.094C382.846 159.094 383.065 159.076 383.289 159.039C383.513 159.003 383.695 158.958 383.836 158.906V159.914C383.685 159.982 383.474 160.039 383.203 160.086C382.938 160.133 382.677 160.156 382.422 160.156C381.969 160.156 381.557 160.078 381.188 159.922C380.818 159.76 380.521 159.49 380.297 159.109C380.078 158.729 379.969 158.203 379.969 157.531V152.453H378.75V151.82L379.977 151.312L380.492 149.453H381.273V151.438H383.781V152.453H381.273V157.492C381.273 158.029 381.396 158.43 381.641 158.695C381.891 158.961 382.221 159.094 382.633 159.094ZM392.953 155.703C392.953 156.406 392.862 157.034 392.68 157.586C392.497 158.138 392.234 158.604 391.891 158.984C391.547 159.365 391.13 159.656 390.641 159.859C390.156 160.057 389.607 160.156 388.992 160.156C388.419 160.156 387.893 160.057 387.414 159.859C386.94 159.656 386.529 159.365 386.18 158.984C385.836 158.604 385.568 158.138 385.375 157.586C385.188 157.034 385.094 156.406 385.094 155.703C385.094 154.766 385.253 153.969 385.57 153.312C385.888 152.651 386.341 152.148 386.93 151.805C387.523 151.456 388.229 151.281 389.047 151.281C389.828 151.281 390.51 151.456 391.094 151.805C391.682 152.154 392.138 152.659 392.461 153.32C392.789 153.977 392.953 154.771 392.953 155.703ZM386.438 155.703C386.438 156.391 386.529 156.987 386.711 157.492C386.893 157.997 387.174 158.388 387.555 158.664C387.935 158.94 388.424 159.078 389.023 159.078C389.617 159.078 390.104 158.94 390.484 158.664C390.87 158.388 391.154 157.997 391.336 157.492C391.518 156.987 391.609 156.391 391.609 155.703C391.609 155.021 391.518 154.432 391.336 153.938C391.154 153.438 390.872 153.052 390.492 152.781C390.112 152.51 389.62 152.375 389.016 152.375C388.125 152.375 387.471 152.669 387.055 153.258C386.643 153.846 386.438 154.661 386.438 155.703ZM406.422 151.438V160H405.359L405.172 158.797H405.102C404.924 159.094 404.695 159.344 404.414 159.547C404.133 159.75 403.815 159.901 403.461 160C403.112 160.104 402.74 160.156 402.344 160.156C401.667 160.156 401.099 160.047 400.641 159.828C400.182 159.609 399.836 159.271 399.602 158.812C399.372 158.354 399.258 157.766 399.258 157.047V151.438H400.57V156.953C400.57 157.667 400.732 158.201 401.055 158.555C401.378 158.904 401.87 159.078 402.531 159.078C403.167 159.078 403.672 158.958 404.047 158.719C404.427 158.479 404.701 158.128 404.867 157.664C405.034 157.195 405.117 156.622 405.117 155.945V151.438H406.422ZM414.703 157.656C414.703 158.203 414.565 158.664 414.289 159.039C414.018 159.409 413.628 159.688 413.117 159.875C412.612 160.062 412.008 160.156 411.305 160.156C410.706 160.156 410.188 160.109 409.75 160.016C409.312 159.922 408.93 159.789 408.602 159.617V158.422C408.951 158.594 409.367 158.75 409.852 158.891C410.336 159.031 410.831 159.102 411.336 159.102C412.076 159.102 412.612 158.982 412.945 158.742C413.279 158.503 413.445 158.177 413.445 157.766C413.445 157.531 413.378 157.326 413.242 157.148C413.112 156.966 412.891 156.792 412.578 156.625C412.266 156.453 411.833 156.266 411.281 156.062C410.734 155.854 410.26 155.648 409.859 155.445C409.464 155.237 409.156 154.984 408.938 154.688C408.724 154.391 408.617 154.005 408.617 153.531C408.617 152.807 408.909 152.253 409.492 151.867C410.081 151.477 410.852 151.281 411.805 151.281C412.32 151.281 412.802 151.333 413.25 151.438C413.703 151.536 414.125 151.672 414.516 151.844L414.078 152.883C413.724 152.732 413.346 152.604 412.945 152.5C412.544 152.396 412.135 152.344 411.719 152.344C411.12 152.344 410.659 152.443 410.336 152.641C410.018 152.839 409.859 153.109 409.859 153.453C409.859 153.719 409.932 153.938 410.078 154.109C410.229 154.281 410.469 154.443 410.797 154.594C411.125 154.745 411.557 154.922 412.094 155.125C412.63 155.323 413.094 155.529 413.484 155.742C413.875 155.951 414.174 156.206 414.383 156.508C414.596 156.805 414.703 157.188 414.703 157.656ZM420.086 151.281C420.815 151.281 421.44 151.443 421.961 151.766C422.482 152.089 422.88 152.542 423.156 153.125C423.432 153.703 423.57 154.38 423.57 155.156V155.961H417.656C417.672 156.966 417.922 157.732 418.406 158.258C418.891 158.784 419.573 159.047 420.453 159.047C420.995 159.047 421.474 158.997 421.891 158.898C422.307 158.799 422.74 158.654 423.188 158.461V159.602C422.755 159.794 422.326 159.935 421.898 160.023C421.477 160.112 420.977 160.156 420.398 160.156C419.576 160.156 418.857 159.99 418.242 159.656C417.633 159.318 417.159 158.823 416.82 158.172C416.482 157.521 416.312 156.724 416.312 155.781C416.312 154.859 416.466 154.062 416.773 153.391C417.086 152.714 417.523 152.193 418.086 151.828C418.654 151.464 419.32 151.281 420.086 151.281ZM420.07 152.344C419.378 152.344 418.826 152.57 418.414 153.023C418.003 153.477 417.758 154.109 417.68 154.922H422.211C422.206 154.411 422.125 153.964 421.969 153.578C421.818 153.188 421.586 152.885 421.273 152.672C420.961 152.453 420.56 152.344 420.07 152.344ZM425.578 159.188C425.578 158.823 425.667 158.565 425.844 158.414C426.021 158.258 426.237 158.18 426.492 158.18C426.758 158.18 426.982 158.258 427.164 158.414C427.346 158.565 427.438 158.823 427.438 159.188C427.438 159.547 427.346 159.81 427.164 159.977C426.982 160.138 426.758 160.219 426.492 160.219C426.237 160.219 426.021 160.138 425.844 159.977C425.667 159.81 425.578 159.547 425.578 159.188Z" fill="white"></path>
<path d="M304 93C315.046 93 324 84.0457 324 73C324 61.9543 315.046 53 304 53C292.954 53 284 61.9543 284 73C284 84.0457 292.954 93 304 93Z" fill="url(#paint17_linear_594_58187)"></path>
<path d="M302.111 80.3912C301.66 80.392 301.221 80.2464 300.86 79.9763L300.838 79.9596L296.125 76.3625C295.906 76.1955 295.723 75.9873 295.585 75.7497C295.448 75.5121 295.358 75.2498 295.322 74.9778C295.286 74.7057 295.305 74.4292 295.376 74.1641C295.447 73.899 295.569 73.6505 295.737 73.4327C295.904 73.2149 296.113 73.0322 296.351 72.8949C296.589 72.7576 296.852 72.6684 297.125 72.6325C297.397 72.5965 297.674 72.6145 297.94 72.6854C298.206 72.7563 298.455 72.8788 298.673 73.0457L301.726 75.3814L308.94 65.9918C309.107 65.7741 309.316 65.5914 309.554 65.4541C309.792 65.3169 310.055 65.2277 310.327 65.1918C310.6 65.1559 310.877 65.1739 311.142 65.2448C311.408 65.3157 311.657 65.438 311.875 65.6049L311.876 65.6054L311.831 65.6674L311.877 65.6054C312.317 65.9429 312.605 66.4409 312.678 66.99C312.75 67.5392 312.602 68.0946 312.264 68.5345L303.779 79.5738C303.583 79.8282 303.33 80.034 303.042 80.1753C302.753 80.3167 302.435 80.3897 302.113 80.3888L302.111 80.3912Z" fill="white"></path>
</g>
<defs>
<radialGradient id="paint0_radial_594_58187" cx="0" cy="0" r="1" gradientUnits="userSpaceOnUse" gradientTransform="translate(310 289) rotate(90) scale(331)">
<stop stop-color="#9830FF"></stop>
<stop offset="1" stop-color="#4248E0" stop-opacity="0"></stop>
</radialGradient>
<linearGradient id="paint1_linear_594_58187" x1="73.0645" y1="107.36" x2="80.9254" y2="107.36" gradientUnits="userSpaceOnUse">
<stop offset="0.432292" stop-color="#4248E0"></stop>
<stop offset="1" stop-color="#22C9C0"></stop>
</linearGradient>
<linearGradient id="paint2_linear_594_58187" x1="32.2256" y1="94.661" x2="73.2769" y2="94.661" gradientUnits="userSpaceOnUse">
<stop offset="0.432292" stop-color="#4248E0"></stop>
<stop offset="1" stop-color="#22C9C0"></stop>
</linearGradient>
<linearGradient id="paint3_linear_594_58187" x1="43.1138" y1="88.1316" x2="69.1727" y2="88.1316" gradientUnits="userSpaceOnUse">
<stop offset="0.432292" stop-color="#4248E0"></stop>
<stop offset="1" stop-color="#22C9C0"></stop>
</linearGradient>
<linearGradient id="paint4_linear_594_58187" x1="6.3877" y1="69.9454" x2="20.7612" y2="69.9454" gradientUnits="userSpaceOnUse">
<stop offset="0.432292" stop-color="#4248E0"></stop>
<stop offset="1" stop-color="#22C9C0"></stop>
</linearGradient>
<linearGradient id="paint5_linear_594_58187" x1="122.212" y1="63.7355" x2="136.586" y2="63.7355" gradientUnits="userSpaceOnUse">
<stop offset="0.432292" stop-color="#4248E0"></stop>
<stop offset="1" stop-color="#22C9C0"></stop>
</linearGradient>
<linearGradient id="paint6_linear_594_58187" x1="40.9453" y1="117.863" x2="55.3189" y2="117.863" gradientUnits="userSpaceOnUse">
<stop offset="0.432292" stop-color="#4248E0"></stop>
<stop offset="1" stop-color="#22C9C0"></stop>
</linearGradient>
<linearGradient id="paint7_linear_594_58187" x1="71.7725" y1="63.7355" x2="86.146" y2="63.7355" gradientUnits="userSpaceOnUse">
<stop offset="0.432292" stop-color="#4248E0"></stop>
<stop offset="1" stop-color="#22C9C0"></stop>
</linearGradient>
<linearGradient id="paint8_linear_594_58187" x1="57.3447" y1="31.402" x2="76.984" y2="31.402" gradientUnits="userSpaceOnUse">
<stop offset="0.432292" stop-color="#4248E0"></stop>
<stop offset="1" stop-color="#22C9C0"></stop>
</linearGradient>
<linearGradient id="paint9_linear_594_58187" x1="555.766" y1="194.454" x2="562.341" y2="194.454" gradientUnits="userSpaceOnUse">
<stop offset="0.432292" stop-color="#4248E0"></stop>
<stop offset="1" stop-color="#22C9C0"></stop>
</linearGradient>
<linearGradient id="paint10_linear_594_58187" x1="521.611" y1="183.832" x2="555.947" y2="183.832" gradientUnits="userSpaceOnUse">
<stop offset="0.432292" stop-color="#4248E0"></stop>
<stop offset="1" stop-color="#22C9C0"></stop>
</linearGradient>
<linearGradient id="paint11_linear_594_58187" x1="530.718" y1="178.371" x2="552.515" y2="178.371" gradientUnits="userSpaceOnUse">
<stop offset="0.432292" stop-color="#4248E0"></stop>
<stop offset="1" stop-color="#22C9C0"></stop>
</linearGradient>
<linearGradient id="paint12_linear_594_58187" x1="500.001" y1="163.159" x2="512.023" y2="163.159" gradientUnits="userSpaceOnUse">
<stop offset="0.432292" stop-color="#4248E0"></stop>
<stop offset="1" stop-color="#22C9C0"></stop>
</linearGradient>
<linearGradient id="paint13_linear_594_58187" x1="596.877" y1="157.965" x2="608.899" y2="157.965" gradientUnits="userSpaceOnUse">
<stop offset="0.432292" stop-color="#4248E0"></stop>
<stop offset="1" stop-color="#22C9C0"></stop>
</linearGradient>
<linearGradient id="paint14_linear_594_58187" x1="528.905" y1="203.24" x2="540.928" y2="203.24" gradientUnits="userSpaceOnUse">
<stop offset="0.432292" stop-color="#4248E0"></stop>
<stop offset="1" stop-color="#22C9C0"></stop>
</linearGradient>
<linearGradient id="paint15_linear_594_58187" x1="554.69" y1="157.965" x2="566.713" y2="157.965" gradientUnits="userSpaceOnUse">
<stop offset="0.432292" stop-color="#4248E0"></stop>
<stop offset="1" stop-color="#22C9C0"></stop>
</linearGradient>
<linearGradient id="paint16_linear_594_58187" x1="542.621" y1="130.921" x2="559.048" y2="130.921" gradientUnits="userSpaceOnUse">
<stop offset="0.432292" stop-color="#4248E0"></stop>
<stop offset="1" stop-color="#22C9C0"></stop>
</linearGradient>
<linearGradient id="paint17_linear_594_58187" x1="284" y1="73" x2="324" y2="73" gradientUnits="userSpaceOnUse">
<stop offset="0.432292" stop-color="#4248E0"></stop>
<stop offset="1" stop-color="#22C9C0"></stop>
</linearGradient>
<clipPath id="clip0_594_58187">
<rect width="624" height="220" fill="white"></rect>
</clipPath>
</defs>
</svg>