<svg xmlns="http://www.w3.org/2000/svg" xmlns:xlink="http://www.w3.org/1999/xlink" width="1024" height="371" viewBox="0 0 1024 371">
  <defs>
    <clipPath id="clip-path">
      <rect id="Rectangle_21" data-name="Rectangle 21" width="1024" height="317" rx="16" transform="translate(376 100)" fill="#4b778b" opacity="0.2"></rect>
    </clipPath>
    <filter id="Ellipse_8" x="899.999" y="5" width="130" height="130" filterUnits="userSpaceOnUse">
      <feOffset dy="4" input="SourceAlpha"></feOffset>
      <feGaussianBlur stdDeviation="4" result="blur"></feGaussianBlur>
      <feFlood flood-opacity="0.102"></feFlood>
      <feComposite operator="in" in2="blur"></feComposite>
      <feComposite in="SourceGraphic"></feComposite>
    </filter>
    <filter id="Ellipse_9" x="734.999" y="-160" width="460" height="460" filterUnits="userSpaceOnUse">
      <feOffset dy="4" input="SourceAlpha"></feOffset>
      <feGaussianBlur stdDeviation="4" result="blur-2"></feGaussianBlur>
      <feFlood flood-opacity="0.102"></feFlood>
      <feComposite operator="in" in2="blur-2"></feComposite>
      <feComposite in="SourceGraphic"></feComposite>
    </filter>
    <filter id="Ellipse_8-2" x="764" y="34" width="346" height="346" filterUnits="userSpaceOnUse">
      <feOffset dy="4" input="SourceAlpha"></feOffset>
      <feGaussianBlur stdDeviation="4" result="blur-3"></feGaussianBlur>
      <feFlood flood-opacity="0.102"></feFlood>
      <feComposite operator="in" in2="blur-3"></feComposite>
      <feComposite in="SourceGraphic"></feComposite>
    </filter>
    <filter id="Ellipse_9-2" x="574" y="-156" width="726" height="726" filterUnits="userSpaceOnUse">
      <feOffset dy="4" input="SourceAlpha"></feOffset>
      <feGaussianBlur stdDeviation="4" result="blur-4"></feGaussianBlur>
      <feFlood flood-opacity="0.102"></feFlood>
      <feComposite operator="in" in2="blur-4"></feComposite>
      <feComposite in="SourceGraphic"></feComposite>
    </filter>
    <linearGradient id="linear-gradient" x1="0.916" y1="0.5" x2="0" y2="0.5" gradientUnits="objectBoundingBox">
      <stop offset="0" stop-color="#d4d8da" stop-opacity="0"></stop>
      <stop offset="1" stop-color="#d4d9db"></stop>
    </linearGradient>
    <filter id="Rectangle_25" x="529" y="73" width="369" height="228" filterUnits="userSpaceOnUse">
      <feOffset dy="3" input="SourceAlpha"></feOffset>
      <feGaussianBlur stdDeviation="9" result="blur-5"></feGaussianBlur>
      <feFlood flood-color="#033d58" flood-opacity="0.102"></feFlood>
      <feComposite operator="in" in2="blur-5"></feComposite>
      <feComposite in="SourceGraphic"></feComposite>
    </filter>
    <filter id="Ellipse_15" x="822" y="129" width="102" height="102" filterUnits="userSpaceOnUse">
      <feOffset dy="3" input="SourceAlpha"></feOffset>
      <feGaussianBlur stdDeviation="9" result="blur-6"></feGaussianBlur>
      <feFlood flood-color="#033d58" flood-opacity="0.2"></feFlood>
      <feComposite operator="in" in2="blur-6"></feComposite>
      <feComposite in="SourceGraphic"></feComposite>
    </filter>
    <filter id="Ellipse_15-2" x="511" y="211" width="102" height="102" filterUnits="userSpaceOnUse">
      <feOffset dy="3" input="SourceAlpha"></feOffset>
      <feGaussianBlur stdDeviation="9" result="blur-7"></feGaussianBlur>
      <feFlood flood-color="#033d58" flood-opacity="0.2"></feFlood>
      <feComposite operator="in" in2="blur-7"></feComposite>
      <feComposite in="SourceGraphic"></feComposite>
    </filter>
    <filter id="Ellipse_15-3" x="45" y="269" width="102" height="102" filterUnits="userSpaceOnUse">
      <feOffset dy="3" input="SourceAlpha"></feOffset>
      <feGaussianBlur stdDeviation="9" result="blur-8"></feGaussianBlur>
      <feFlood flood-color="#033d58" flood-opacity="0.302"></feFlood>
      <feComposite operator="in" in2="blur-8"></feComposite>
      <feComposite in="SourceGraphic"></feComposite>
    </filter>
  </defs>
  <g id="hero-image" transform="translate(-376 -100)">
    <g id="Mask_Group_1" data-name="Mask Group 1" clip-path="url(#clip-path)">
      <g id="Group_60" data-name="Group 60" transform="translate(1273 98)">
        <g transform="matrix(1, 0, 0, 1, -897, 2)" filter="url(#Ellipse_8)">
          <ellipse id="Ellipse_8-3" data-name="Ellipse 8" cx="53" cy="53" rx="53" ry="53" transform="translate(912 13)" fill="#b6e5e2"></ellipse>
        </g>
        <g transform="matrix(1, 0, 0, 1, -897, 2)" filter="url(#Ellipse_9)">
          <ellipse id="Ellipse_9-3" data-name="Ellipse 9" cx="68" cy="68" rx="68" ry="68" transform="translate(897 -2)" fill="#b6e5e2" opacity="0.4"></ellipse>
        </g>
      </g>
      <g id="Group_61" data-name="Group 61" transform="translate(1112 102)">
        <g transform="matrix(1, 0, 0, 1, -736, -2)" filter="url(#Ellipse_8-2)">
          <ellipse id="Ellipse_8-4" data-name="Ellipse 8" cx="161" cy="161" rx="161" ry="161" transform="translate(776 42)" fill="#ff7c66"></ellipse>
        </g>
        <g transform="matrix(1, 0, 0, 1, -736, -2)" filter="url(#Ellipse_9-2)">
          <circle id="Ellipse_9-4" data-name="Ellipse 9" cx="201" cy="201" r="201" transform="translate(736 2)" fill="#ff7c66" opacity="0.3"></circle>
        </g>
      </g>
    </g>
    <rect id="Rectangle_27" data-name="Rectangle 27" width="1024" height="317" rx="16" transform="translate(376 100)" opacity="0.6" fill="url(#linear-gradient)"></rect>
    <g id="Group_58" data-name="Group 58" transform="translate(-20 -32)">
      <rect id="Rectangle_22" data-name="Rectangle 22" width="32" height="32" rx="16" transform="translate(468 371)" fill="#033d58"></rect>
      <rect id="Rectangle_23" data-name="Rectangle 23" width="32" height="32" rx="16" transform="translate(500 371)" fill="#033d58" opacity="0.5"></rect>
      <rect id="Rectangle_24" data-name="Rectangle 24" width="32" height="32" rx="16" transform="translate(532 371)" fill="#033d58" opacity="0.2"></rect>
    </g>
    <path id="Path_166" data-name="Path 166" d="M26.906-6.469H10.359v-6.492H24.82V-19.43H10.359v-5.906H26.672v-6.492H2.648V0H26.906Zm14.227-.094L45.445,0h8.2l-8.18-11.484L53.461-22.5H45.023l-3.891,5.93L37.172-22.5H28.688L36.8-11.484,28.734,0h8.133Zm25.2-16.406c-6.961,0-12.094,5.016-12.094,11.719S59.367.469,66.328.469,78.422-4.547,78.422-11.25,73.289-22.969,66.328-22.969Zm0,6.539c2.813,0,4.781,2.133,4.781,5.18s-1.969,5.18-4.781,5.18S61.547-8.2,61.547-11.25,63.516-16.43,66.328-16.43ZM93.234-32.3c-7.523,0-12.492,3.961-12.492,9.891,0,5.719,4.453,7.8,8.7,9.188l4.969,1.266c2.32.609,3.328,1.359,3.328,2.836,0,2.133-2.414,2.836-5.3,2.836-4.383,0-10.078-1.641-10.875-2.508l-.609,6.773C83.039-.844,88.289.469,92.977.469c7.758,0,12.68-4.008,12.68-9.844,0-5.016-2.906-7.43-8.766-9.117L92.344-19.8c-1.828-.516-3.7-1.008-3.7-2.977,0-2.156,2.2-2.859,4.922-2.859,3.8,0,8.6,1.406,9.75,2.156l.633-6.586A24.018,24.018,0,0,0,93.234-32.3Zm23.2,41.672V-1.664A9.821,9.821,0,0,0,123.047.469c6.352,0,10.5-4.969,10.5-11.672,0-6.75-4.148-11.766-10.5-11.766-3.4,0-5.508,1.2-6.82,2.836l-.234-2.367h-6.937V9.375Zm4.711-25.734a4.812,4.812,0,0,1,4.969,5.109,4.891,4.891,0,0,1-4.969,5.109,4.789,4.789,0,0,1-4.8-5.109A4.776,4.776,0,0,1,121.148-16.359ZM144.422-33h-7.383V0h7.406V-12.516a3.571,3.571,0,0,1,3.75-3.7,3.627,3.627,0,0,1,3.773,3.7V0h7.383V-14.625a8.074,8.074,0,0,0-8.32-8.344,9.054,9.054,0,0,0-6.609,2.414Zm25.453,19.313c.188-1.852,1.711-3.422,4.43-3.422,2.484,0,3.961,1.664,3.961,3.422ZM183.4-7.078a19.592,19.592,0,0,1-7.359,1.313c-3.023,0-5.812-.984-6.187-3.586h15c1.641-9.328-4.148-13.617-10.664-13.617-6.633,0-11.531,4.641-11.531,11.719S167.648.469,175.992.469a18.166,18.166,0,0,0,8.414-2.016ZM195.82-19.43l-.234-3.07h-6.961V0h7.383V-10.828c0-4.2,2.367-5.719,5.156-5.719a8.6,8.6,0,0,1,2.836.492l.445-6.445a8.871,8.871,0,0,0-2.742-.469A6.313,6.313,0,0,0,195.82-19.43Zm16.734,5.742c.188-1.852,1.711-3.422,4.43-3.422,2.484,0,3.961,1.664,3.961,3.422Zm13.523,6.609a19.592,19.592,0,0,1-7.359,1.313c-3.023,0-5.812-.984-6.187-3.586h15c1.641-9.328-4.148-13.617-10.664-13.617-6.633,0-11.531,4.641-11.531,11.719S210.328.469,218.672.469a18.166,18.166,0,0,0,8.414-2.016ZM16.594,63c9.938,0,16.313-5.812,16.313-15.984,0-10.125-6.117-15.844-16.312-15.844H2.648V63Zm-.656-25.336q9.07,0,9.07,9.352c0,6.023-2.883,9.516-9.07,9.516H10.359V37.664ZM42.82,49.313c.188-1.852,1.711-3.422,4.43-3.422,2.484,0,3.961,1.664,3.961,3.422Zm13.523,6.609a19.592,19.592,0,0,1-7.359,1.313c-3.023,0-5.812-.984-6.187-3.586h15c1.641-9.328-4.148-13.617-10.664-13.617C40.5,40.031,35.6,44.672,35.6,51.75s4.992,11.719,13.336,11.719a18.166,18.166,0,0,0,8.414-2.016Zm23.3.188c0-3.844-2.016-5.953-6.352-6.656l-2.18-.352c-2.555-.4-3.469-.82-3.469-1.617,0-.984,1.2-1.453,3.7-1.453a23.4,23.4,0,0,1,6.727,1.2l.563-5.742a19.06,19.06,0,0,0-7.687-1.453c-6.3,0-10.336,2.93-10.336,7.5,0,3.984,2.109,6.117,6.8,6.844l2.086.328c2.344.375,3.023.727,3.023,1.57,0,.961-.937,1.313-3.4,1.313a23.822,23.822,0,0,1-7.43-1.5l-.727,5.836a23.153,23.153,0,0,0,8.789,1.547C75.82,63.469,79.641,60.609,79.641,56.109ZM90.375,40.5H82.992V63h7.383Zm-3.727-2.883a3.876,3.876,0,0,0,4.078-4.031,4.055,4.055,0,1,0-8.109,0A3.851,3.851,0,0,0,86.648,37.617Zm19.617,9.023a4.776,4.776,0,0,1,4.8,5.109,4.789,4.789,0,0,1-4.8,5.109A4.891,4.891,0,0,1,101.3,51.75,4.812,4.812,0,0,1,106.266,46.641Zm4.711,14.344v1.289c0,3.352-4.289,4.1-6.867,4.1-3.023,0-6.469-.844-7.5-1.5l-.7,6.117a21.154,21.154,0,0,0,8.859,1.852c6.3,0,13.57-2.742,13.57-10.172V40.5h-6.914l-.234,2.367c-1.312-1.641-3.422-2.836-6.82-2.836-6.352,0-10.5,5.016-10.5,11.766,0,6.7,4.148,11.672,10.5,11.672C107.156,63.469,109.8,62.555,110.977,60.984ZM145.078,63V48.375a8.074,8.074,0,0,0-8.32-8.344c-2.648,0-5.367.82-6.961,2.836l-.234-2.367h-6.773V63h7.383V50.484a3.571,3.571,0,0,1,3.75-3.7,3.627,3.627,0,0,1,3.773,3.7V63Zm27.68-32.3c-7.523,0-12.492,3.961-12.492,9.891,0,5.719,4.453,7.8,8.7,9.188l4.969,1.266c2.32.609,3.328,1.359,3.328,2.836,0,2.133-2.414,2.836-5.3,2.836-4.383,0-10.078-1.641-10.875-2.508l-.609,6.773c2.086,1.172,7.336,2.484,12.023,2.484,7.758,0,12.68-4.008,12.68-9.844,0-5.016-2.906-7.43-8.766-9.117L171.867,43.2c-1.828-.516-3.7-1.008-3.7-2.977,0-2.156,2.2-2.859,4.922-2.859,3.8,0,8.6,1.406,9.75,2.156l.633-6.586A24.018,24.018,0,0,0,172.758,30.7ZM195,63.023a4.4,4.4,0,0,1-4.383,3.445,6.474,6.474,0,0,1-2.625-.609l-1.008,5.813a11.024,11.024,0,0,0,4.852,1.172A9.845,9.845,0,0,0,201.4,66.3l10.43-25.8h-8.25l-4.641,15.047L194.18,40.5h-8.227Zm36.914-6.914c0-3.844-2.016-5.953-6.352-6.656l-2.18-.352c-2.555-.4-3.469-.82-3.469-1.617,0-.984,1.2-1.453,3.7-1.453a23.4,23.4,0,0,1,6.727,1.2l.563-5.742a19.06,19.06,0,0,0-7.687-1.453c-6.3,0-10.336,2.93-10.336,7.5,0,3.984,2.109,6.117,6.8,6.844l2.086.328c2.344.375,3.023.727,3.023,1.57,0,.961-.937,1.313-3.4,1.313a23.822,23.822,0,0,1-7.43-1.5l-.727,5.836a23.153,23.153,0,0,0,8.789,1.547C228.094,63.469,231.914,60.609,231.914,56.109Zm18.82-9.586V40.5h-6.352V33.281h-7.148V40.5h-3.586v6.023h3.586v8.461c0,6,3.727,8.484,8.883,8.484a19.262,19.262,0,0,0,5.977-1.031l-.516-6c-3.562.844-6.961,1.172-6.961-2.648V46.523Zm10.008,2.789c.188-1.852,1.711-3.422,4.43-3.422,2.484,0,3.961,1.664,3.961,3.422Zm13.523,6.609a19.592,19.592,0,0,1-7.359,1.313c-3.023,0-5.812-.984-6.187-3.586h15c1.641-9.328-4.148-13.617-10.664-13.617-6.633,0-11.531,4.641-11.531,11.719s4.992,11.719,13.336,11.719a18.166,18.166,0,0,0,8.414-2.016ZM309.164,63h7.383V48.375c0-5.484-4.1-8.344-8.437-8.344a9.141,9.141,0,0,0-7.57,3.75c-1.2-2.484-4.078-3.75-7.078-3.75-2.648,0-5.367.82-6.961,2.836l-.234-2.367h-6.773V63h7.383V50.484a3.715,3.715,0,0,1,7.43,0V63h7.383V50.484a3.608,3.608,0,0,1,3.8-3.7,3.517,3.517,0,0,1,3.68,3.7Z" transform="translate(448 204)" fill="#033d58"></path>
    <path id="Path_9" data-name="Path 9" d="M.67.335A.335.335,0,1,1,.335,0,.335.335,0,0,1,.67.335M11.4,0a.335.335,0,1,0,.335.335A.335.335,0,0,0,11.4,0M22.457,0a.335.335,0,1,0,.335.335A.335.335,0,0,0,22.457,0M33.518,0a.335.335,0,1,0,.335.335A.335.335,0,0,0,33.518,0M44.579,0a.335.335,0,1,0,.335.335A.335.335,0,0,0,44.579,0M55.64,0a.335.335,0,1,0,.335.335A.335.335,0,0,0,55.64,0M66.7,0a.335.335,0,1,0,.335.335A.335.335,0,0,0,66.7,0M77.762,0A.335.335,0,1,0,78.1.335.335.335,0,0,0,77.762,0M88.823,0a.335.335,0,1,0,.335.335A.335.335,0,0,0,88.823,0M99.883,0a.335.335,0,1,0,.335.335A.335.335,0,0,0,99.883,0m11.061,0a.335.335,0,1,0,.335.335A.335.335,0,0,0,110.944,0m11.061,0a.335.335,0,1,0,.335.335A.335.335,0,0,0,122.005,0m11.061,0a.335.335,0,1,0,.335.335A.335.335,0,0,0,133.066,0m11.061,0a.335.335,0,1,0,.335.335A.335.335,0,0,0,144.127,0m11.061,0a.335.335,0,1,0,.335.335A.335.335,0,0,0,155.188,0m11.061,0a.335.335,0,1,0,.335.335A.335.335,0,0,0,166.249,0M177.31,0a.335.335,0,1,0,.335.335A.335.335,0,0,0,177.31,0m11.061,0a.335.335,0,1,0,.335.335A.335.335,0,0,0,188.371,0m11.061,0a.335.335,0,1,0,.335.335A.335.335,0,0,0,199.432,0m11.061,0a.335.335,0,1,0,.335.335A.335.335,0,0,0,210.493,0M.335,10.055a.335.335,0,1,0,.335.335.335.335,0,0,0-.335-.335m11.061,0a.335.335,0,1,0,.335.335.335.335,0,0,0-.335-.335m11.061,0a.335.335,0,1,0,.335.335.335.335,0,0,0-.335-.335m11.061,0a.335.335,0,1,0,.335.335.335.335,0,0,0-.335-.335m11.061,0a.335.335,0,1,0,.335.335.335.335,0,0,0-.335-.335m11.061,0a.335.335,0,1,0,.335.335.335.335,0,0,0-.335-.335m11.061,0a.335.335,0,1,0,.335.335.335.335,0,0,0-.335-.335m11.061,0a.335.335,0,1,0,.335.335.335.335,0,0,0-.335-.335m11.061,0a.335.335,0,1,0,.335.335.335.335,0,0,0-.335-.335m11.061,0a.335.335,0,1,0,.335.335.335.335,0,0,0-.335-.335m11.061,0a.335.335,0,1,0,.335.335.335.335,0,0,0-.335-.335m11.061,0a.335.335,0,1,0,.335.335.335.335,0,0,0-.335-.335m11.061,0a.335.335,0,1,0,.335.335.335.335,0,0,0-.335-.335m11.061,0a.335.335,0,1,0,.335.335.335.335,0,0,0-.335-.335m11.061,0a.335.335,0,1,0,.335.335.335.335,0,0,0-.335-.335m11.061,0a.335.335,0,1,0,.335.335.335.335,0,0,0-.335-.335m11.061,0a.335.335,0,1,0,.335.335.335.335,0,0,0-.335-.335m11.061,0a.335.335,0,1,0,.335.335.335.335,0,0,0-.335-.335m11.061,0a.335.335,0,1,0,.335.335.335.335,0,0,0-.335-.335m11.061,0a.335.335,0,1,0,.335.335.335.335,0,0,0-.335-.335M.335,20.111a.335.335,0,1,0,.335.335.335.335,0,0,0-.335-.335m11.061,0a.335.335,0,1,0,.335.335.335.335,0,0,0-.335-.335m11.061,0a.335.335,0,1,0,.335.335.335.335,0,0,0-.335-.335m11.061,0a.335.335,0,1,0,.335.335.335.335,0,0,0-.335-.335m11.061,0a.335.335,0,1,0,.335.335.335.335,0,0,0-.335-.335m11.061,0a.335.335,0,1,0,.335.335.335.335,0,0,0-.335-.335m11.061,0a.335.335,0,1,0,.335.335.335.335,0,0,0-.335-.335m11.061,0a.335.335,0,1,0,.335.335.335.335,0,0,0-.335-.335m11.061,0a.335.335,0,1,0,.335.335.335.335,0,0,0-.335-.335m11.061,0a.335.335,0,1,0,.335.335.335.335,0,0,0-.335-.335m11.061,0a.335.335,0,1,0,.335.335.335.335,0,0,0-.335-.335m11.061,0a.335.335,0,1,0,.335.335.335.335,0,0,0-.335-.335m11.061,0a.335.335,0,1,0,.335.335.335.335,0,0,0-.335-.335m11.061,0a.335.335,0,1,0,.335.335.335.335,0,0,0-.335-.335m11.061,0a.335.335,0,1,0,.335.335.335.335,0,0,0-.335-.335m11.061,0a.335.335,0,1,0,.335.335.335.335,0,0,0-.335-.335m11.061,0a.335.335,0,1,0,.335.335.335.335,0,0,0-.335-.335m11.061,0a.335.335,0,1,0,.335.335.335.335,0,0,0-.335-.335m11.061,0a.335.335,0,1,0,.335.335.335.335,0,0,0-.335-.335m11.061,0a.335.335,0,1,0,.335.335.335.335,0,0,0-.335-.335M.335,30.166A.335.335,0,1,0,.67,30.5a.335.335,0,0,0-.335-.335m11.061,0a.335.335,0,1,0,.335.335.335.335,0,0,0-.335-.335m11.061,0a.335.335,0,1,0,.335.335.335.335,0,0,0-.335-.335m11.061,0a.335.335,0,1,0,.335.335.335.335,0,0,0-.335-.335m11.061,0a.335.335,0,1,0,.335.335.335.335,0,0,0-.335-.335m11.061,0a.335.335,0,1,0,.335.335.335.335,0,0,0-.335-.335m11.061,0a.335.335,0,1,0,.335.335.335.335,0,0,0-.335-.335m11.061,0a.335.335,0,1,0,.335.335.335.335,0,0,0-.335-.335m11.061,0a.335.335,0,1,0,.335.335.335.335,0,0,0-.335-.335m11.061,0a.335.335,0,1,0,.335.335.335.335,0,0,0-.335-.335m11.061,0a.335.335,0,1,0,.335.335.335.335,0,0,0-.335-.335m11.061,0a.335.335,0,1,0,.335.335.335.335,0,0,0-.335-.335m11.061,0a.335.335,0,1,0,.335.335.335.335,0,0,0-.335-.335m11.061,0a.335.335,0,1,0,.335.335.335.335,0,0,0-.335-.335m11.061,0a.335.335,0,1,0,.335.335.335.335,0,0,0-.335-.335m11.061,0a.335.335,0,1,0,.335.335.335.335,0,0,0-.335-.335m11.061,0a.335.335,0,1,0,.335.335.335.335,0,0,0-.335-.335m11.061,0a.335.335,0,1,0,.335.335.335.335,0,0,0-.335-.335m11.061,0a.335.335,0,1,0,.335.335.335.335,0,0,0-.335-.335m11.061,0a.335.335,0,1,0,.335.335.335.335,0,0,0-.335-.335M.335,40.222a.335.335,0,1,0,.335.335.335.335,0,0,0-.335-.335m11.061,0a.335.335,0,1,0,.335.335.335.335,0,0,0-.335-.335m11.061,0a.335.335,0,1,0,.335.335.335.335,0,0,0-.335-.335m11.061,0a.335.335,0,1,0,.335.335.335.335,0,0,0-.335-.335m11.061,0a.335.335,0,1,0,.335.335.335.335,0,0,0-.335-.335m11.061,0a.335.335,0,1,0,.335.335.335.335,0,0,0-.335-.335m11.061,0a.335.335,0,1,0,.335.335.335.335,0,0,0-.335-.335m11.061,0a.335.335,0,1,0,.335.335.335.335,0,0,0-.335-.335m11.061,0a.335.335,0,1,0,.335.335.335.335,0,0,0-.335-.335m11.061,0a.335.335,0,1,0,.335.335.335.335,0,0,0-.335-.335m11.061,0a.335.335,0,1,0,.335.335.335.335,0,0,0-.335-.335m11.061,0a.335.335,0,1,0,.335.335.335.335,0,0,0-.335-.335m11.061,0a.335.335,0,1,0,.335.335.335.335,0,0,0-.335-.335m11.061,0a.335.335,0,1,0,.335.335.335.335,0,0,0-.335-.335m11.061,0a.335.335,0,1,0,.335.335.335.335,0,0,0-.335-.335m11.061,0a.335.335,0,1,0,.335.335.335.335,0,0,0-.335-.335m11.061,0a.335.335,0,1,0,.335.335.335.335,0,0,0-.335-.335m11.061,0a.335.335,0,1,0,.335.335.335.335,0,0,0-.335-.335m11.061,0a.335.335,0,1,0,.335.335.335.335,0,0,0-.335-.335m11.061,0a.335.335,0,1,0,.335.335.335.335,0,0,0-.335-.335M.335,50.277a.335.335,0,1,0,.335.335.335.335,0,0,0-.335-.335m11.061,0a.335.335,0,1,0,.335.335.335.335,0,0,0-.335-.335m11.061,0a.335.335,0,1,0,.335.335.335.335,0,0,0-.335-.335m11.061,0a.335.335,0,1,0,.335.335.335.335,0,0,0-.335-.335m11.061,0a.335.335,0,1,0,.335.335.335.335,0,0,0-.335-.335m11.061,0a.335.335,0,1,0,.335.335.335.335,0,0,0-.335-.335m11.061,0a.335.335,0,1,0,.335.335.335.335,0,0,0-.335-.335m11.061,0a.335.335,0,1,0,.335.335.335.335,0,0,0-.335-.335m11.061,0a.335.335,0,1,0,.335.335.335.335,0,0,0-.335-.335m11.061,0a.335.335,0,1,0,.335.335.335.335,0,0,0-.335-.335m11.061,0a.335.335,0,1,0,.335.335.335.335,0,0,0-.335-.335m11.061,0a.335.335,0,1,0,.335.335.335.335,0,0,0-.335-.335m11.061,0a.335.335,0,1,0,.335.335.335.335,0,0,0-.335-.335m11.061,0a.335.335,0,1,0,.335.335.335.335,0,0,0-.335-.335m11.061,0a.335.335,0,1,0,.335.335.335.335,0,0,0-.335-.335m11.061,0a.335.335,0,1,0,.335.335.335.335,0,0,0-.335-.335m11.061,0a.335.335,0,1,0,.335.335.335.335,0,0,0-.335-.335m11.061,0a.335.335,0,1,0,.335.335.335.335,0,0,0-.335-.335m11.061,0a.335.335,0,1,0,.335.335.335.335,0,0,0-.335-.335m11.061,0a.335.335,0,1,0,.335.335.335.335,0,0,0-.335-.335M.335,60.332a.335.335,0,1,0,.335.335.335.335,0,0,0-.335-.335m11.061,0a.335.335,0,1,0,.335.335.335.335,0,0,0-.335-.335m11.061,0a.335.335,0,1,0,.335.335.335.335,0,0,0-.335-.335m11.061,0a.335.335,0,1,0,.335.335.335.335,0,0,0-.335-.335m11.061,0a.335.335,0,1,0,.335.335.335.335,0,0,0-.335-.335m11.061,0a.335.335,0,1,0,.335.335.335.335,0,0,0-.335-.335m11.061,0a.335.335,0,1,0,.335.335.335.335,0,0,0-.335-.335m11.061,0a.335.335,0,1,0,.335.335.335.335,0,0,0-.335-.335m11.061,0a.335.335,0,1,0,.335.335.335.335,0,0,0-.335-.335m11.061,0a.335.335,0,1,0,.335.335.335.335,0,0,0-.335-.335m11.061,0a.335.335,0,1,0,.335.335.335.335,0,0,0-.335-.335m11.061,0a.335.335,0,1,0,.335.335.335.335,0,0,0-.335-.335m11.061,0a.335.335,0,1,0,.335.335.335.335,0,0,0-.335-.335m11.061,0a.335.335,0,1,0,.335.335.335.335,0,0,0-.335-.335m11.061,0a.335.335,0,1,0,.335.335.335.335,0,0,0-.335-.335m11.061,0a.335.335,0,1,0,.335.335.335.335,0,0,0-.335-.335m11.061,0a.335.335,0,1,0,.335.335.335.335,0,0,0-.335-.335m11.061,0a.335.335,0,1,0,.335.335.335.335,0,0,0-.335-.335m11.061,0a.335.335,0,1,0,.335.335.335.335,0,0,0-.335-.335m11.061,0a.335.335,0,1,0,.335.335.335.335,0,0,0-.335-.335M.335,70.388a.335.335,0,1,0,.335.335.335.335,0,0,0-.335-.335m11.061,0a.335.335,0,1,0,.335.335.335.335,0,0,0-.335-.335m11.061,0a.335.335,0,1,0,.335.335.335.335,0,0,0-.335-.335m11.061,0a.335.335,0,1,0,.335.335.335.335,0,0,0-.335-.335m11.061,0a.335.335,0,1,0,.335.335.335.335,0,0,0-.335-.335m11.061,0a.335.335,0,1,0,.335.335.335.335,0,0,0-.335-.335m11.061,0a.335.335,0,1,0,.335.335.335.335,0,0,0-.335-.335m11.061,0a.335.335,0,1,0,.335.335.335.335,0,0,0-.335-.335m11.061,0a.335.335,0,1,0,.335.335.335.335,0,0,0-.335-.335m11.061,0a.335.335,0,1,0,.335.335.335.335,0,0,0-.335-.335m11.061,0a.335.335,0,1,0,.335.335.335.335,0,0,0-.335-.335m11.061,0a.335.335,0,1,0,.335.335.335.335,0,0,0-.335-.335m11.061,0a.335.335,0,1,0,.335.335.335.335,0,0,0-.335-.335m11.061,0a.335.335,0,1,0,.335.335.335.335,0,0,0-.335-.335m11.061,0a.335.335,0,1,0,.335.335.335.335,0,0,0-.335-.335m11.061,0a.335.335,0,1,0,.335.335.335.335,0,0,0-.335-.335m11.061,0a.335.335,0,1,0,.335.335.335.335,0,0,0-.335-.335m11.061,0a.335.335,0,1,0,.335.335.335.335,0,0,0-.335-.335m11.061,0a.335.335,0,1,0,.335.335.335.335,0,0,0-.335-.335m11.061,0a.335.335,0,1,0,.335.335.335.335,0,0,0-.335-.335M.335,80.443a.335.335,0,1,0,.335.335.335.335,0,0,0-.335-.335m11.061,0a.335.335,0,1,0,.335.335.335.335,0,0,0-.335-.335m11.061,0a.335.335,0,1,0,.335.335.335.335,0,0,0-.335-.335m11.061,0a.335.335,0,1,0,.335.335.335.335,0,0,0-.335-.335m11.061,0a.335.335,0,1,0,.335.335.335.335,0,0,0-.335-.335m11.061,0a.335.335,0,1,0,.335.335.335.335,0,0,0-.335-.335m11.061,0a.335.335,0,1,0,.335.335.335.335,0,0,0-.335-.335m11.061,0a.335.335,0,1,0,.335.335.335.335,0,0,0-.335-.335m11.061,0a.335.335,0,1,0,.335.335.335.335,0,0,0-.335-.335m11.061,0a.335.335,0,1,0,.335.335.335.335,0,0,0-.335-.335m11.061,0a.335.335,0,1,0,.335.335.335.335,0,0,0-.335-.335m11.061,0a.335.335,0,1,0,.335.335.335.335,0,0,0-.335-.335m11.061,0a.335.335,0,1,0,.335.335.335.335,0,0,0-.335-.335m11.061,0a.335.335,0,1,0,.335.335.335.335,0,0,0-.335-.335m11.061,0a.335.335,0,1,0,.335.335.335.335,0,0,0-.335-.335m11.061,0a.335.335,0,1,0,.335.335.335.335,0,0,0-.335-.335m11.061,0a.335.335,0,1,0,.335.335.335.335,0,0,0-.335-.335m11.061,0a.335.335,0,1,0,.335.335.335.335,0,0,0-.335-.335m11.061,0a.335.335,0,1,0,.335.335.335.335,0,0,0-.335-.335m11.061,0a.335.335,0,1,0,.335.335.335.335,0,0,0-.335-.335M.335,90.5a.335.335,0,1,0,.335.335A.335.335,0,0,0,.335,90.5m11.061,0a.335.335,0,1,0,.335.335A.335.335,0,0,0,11.4,90.5m11.061,0a.335.335,0,1,0,.335.335.335.335,0,0,0-.335-.335m11.061,0a.335.335,0,1,0,.335.335.335.335,0,0,0-.335-.335m11.061,0a.335.335,0,1,0,.335.335.335.335,0,0,0-.335-.335m11.061,0a.335.335,0,1,0,.335.335.335.335,0,0,0-.335-.335m11.061,0a.335.335,0,1,0,.335.335A.335.335,0,0,0,66.7,90.5m11.061,0a.335.335,0,1,0,.335.335.335.335,0,0,0-.335-.335m11.061,0a.335.335,0,1,0,.335.335.335.335,0,0,0-.335-.335m11.061,0a.335.335,0,1,0,.335.335.335.335,0,0,0-.335-.335m11.061,0a.335.335,0,1,0,.335.335.335.335,0,0,0-.335-.335m11.061,0a.335.335,0,1,0,.335.335.335.335,0,0,0-.335-.335m11.061,0a.335.335,0,1,0,.335.335.335.335,0,0,0-.335-.335m11.061,0a.335.335,0,1,0,.335.335.335.335,0,0,0-.335-.335m11.061,0a.335.335,0,1,0,.335.335.335.335,0,0,0-.335-.335m11.061,0a.335.335,0,1,0,.335.335.335.335,0,0,0-.335-.335m11.061,0a.335.335,0,1,0,.335.335.335.335,0,0,0-.335-.335m11.061,0a.335.335,0,1,0,.335.335.335.335,0,0,0-.335-.335m11.061,0a.335.335,0,1,0,.335.335.335.335,0,0,0-.335-.335m11.061,0a.335.335,0,1,0,.335.335.335.335,0,0,0-.335-.335M.335,100.554a.335.335,0,1,0,.335.335.335.335,0,0,0-.335-.335m11.061,0a.335.335,0,1,0,.335.335.335.335,0,0,0-.335-.335m11.061,0a.335.335,0,1,0,.335.335.335.335,0,0,0-.335-.335m11.061,0a.335.335,0,1,0,.335.335.335.335,0,0,0-.335-.335m11.061,0a.335.335,0,1,0,.335.335.335.335,0,0,0-.335-.335m11.061,0a.335.335,0,1,0,.335.335.335.335,0,0,0-.335-.335m11.061,0a.335.335,0,1,0,.335.335.335.335,0,0,0-.335-.335m11.061,0a.335.335,0,1,0,.335.335.335.335,0,0,0-.335-.335m11.061,0a.335.335,0,1,0,.335.335.335.335,0,0,0-.335-.335m11.061,0a.335.335,0,1,0,.335.335.335.335,0,0,0-.335-.335m11.061,0a.335.335,0,1,0,.335.335.335.335,0,0,0-.335-.335m11.061,0a.335.335,0,1,0,.335.335.335.335,0,0,0-.335-.335m11.061,0a.335.335,0,1,0,.335.335.335.335,0,0,0-.335-.335m11.061,0a.335.335,0,1,0,.335.335.335.335,0,0,0-.335-.335m11.061,0a.335.335,0,1,0,.335.335.335.335,0,0,0-.335-.335m11.061,0a.335.335,0,1,0,.335.335.335.335,0,0,0-.335-.335m11.061,0a.335.335,0,1,0,.335.335.335.335,0,0,0-.335-.335m11.061,0a.335.335,0,1,0,.335.335.335.335,0,0,0-.335-.335m11.061,0a.335.335,0,1,0,.335.335.335.335,0,0,0-.335-.335m11.061,0a.335.335,0,1,0,.335.335.335.335,0,0,0-.335-.335M.335,110.609a.335.335,0,1,0,.335.335.335.335,0,0,0-.335-.335m11.061,0a.335.335,0,1,0,.335.335.335.335,0,0,0-.335-.335m11.061,0a.335.335,0,1,0,.335.335.335.335,0,0,0-.335-.335m11.061,0a.335.335,0,1,0,.335.335.335.335,0,0,0-.335-.335m11.061,0a.335.335,0,1,0,.335.335.335.335,0,0,0-.335-.335m11.061,0a.335.335,0,1,0,.335.335.335.335,0,0,0-.335-.335m11.061,0a.335.335,0,1,0,.335.335.335.335,0,0,0-.335-.335m11.061,0a.335.335,0,1,0,.335.335.335.335,0,0,0-.335-.335m11.061,0a.335.335,0,1,0,.335.335.335.335,0,0,0-.335-.335m11.061,0a.335.335,0,1,0,.335.335.335.335,0,0,0-.335-.335m11.061,0a.335.335,0,1,0,.335.335.335.335,0,0,0-.335-.335m11.061,0a.335.335,0,1,0,.335.335.335.335,0,0,0-.335-.335m11.061,0a.335.335,0,1,0,.335.335.335.335,0,0,0-.335-.335m11.061,0a.335.335,0,1,0,.335.335.335.335,0,0,0-.335-.335m11.061,0a.335.335,0,1,0,.335.335.335.335,0,0,0-.335-.335m11.061,0a.335.335,0,1,0,.335.335.335.335,0,0,0-.335-.335m11.061,0a.335.335,0,1,0,.335.335.335.335,0,0,0-.335-.335m11.061,0a.335.335,0,1,0,.335.335.335.335,0,0,0-.335-.335m11.061,0a.335.335,0,1,0,.335.335.335.335,0,0,0-.335-.335m11.061,0a.335.335,0,1,0,.335.335.335.335,0,0,0-.335-.335M.335,120.665A.335.335,0,1,0,.67,121a.335.335,0,0,0-.335-.335m11.061,0a.335.335,0,1,0,.335.335.335.335,0,0,0-.335-.335m11.061,0a.335.335,0,1,0,.335.335.335.335,0,0,0-.335-.335m11.061,0a.335.335,0,1,0,.335.335.335.335,0,0,0-.335-.335m11.061,0a.335.335,0,1,0,.335.335.335.335,0,0,0-.335-.335m11.061,0a.335.335,0,1,0,.335.335.335.335,0,0,0-.335-.335m11.061,0a.335.335,0,1,0,.335.335.335.335,0,0,0-.335-.335m11.061,0A.335.335,0,1,0,78.1,121a.335.335,0,0,0-.335-.335m11.061,0a.335.335,0,1,0,.335.335.335.335,0,0,0-.335-.335m11.061,0a.335.335,0,1,0,.335.335.335.335,0,0,0-.335-.335m11.061,0a.335.335,0,1,0,.335.335.335.335,0,0,0-.335-.335m11.061,0a.335.335,0,1,0,.335.335.335.335,0,0,0-.335-.335m11.061,0a.335.335,0,1,0,.335.335.335.335,0,0,0-.335-.335m11.061,0a.335.335,0,1,0,.335.335.335.335,0,0,0-.335-.335m11.061,0a.335.335,0,1,0,.335.335.335.335,0,0,0-.335-.335m11.061,0a.335.335,0,1,0,.335.335.335.335,0,0,0-.335-.335m11.061,0a.335.335,0,1,0,.335.335.335.335,0,0,0-.335-.335m11.061,0a.335.335,0,1,0,.335.335.335.335,0,0,0-.335-.335m11.061,0a.335.335,0,1,0,.335.335.335.335,0,0,0-.335-.335m11.061,0a.335.335,0,1,0,.335.335.335.335,0,0,0-.335-.335M.335,130.72a.335.335,0,1,0,.335.335.335.335,0,0,0-.335-.335m11.061,0a.335.335,0,1,0,.335.335.335.335,0,0,0-.335-.335m11.061,0a.335.335,0,1,0,.335.335.335.335,0,0,0-.335-.335m11.061,0a.335.335,0,1,0,.335.335.335.335,0,0,0-.335-.335m11.061,0a.335.335,0,1,0,.335.335.335.335,0,0,0-.335-.335m11.061,0a.335.335,0,1,0,.335.335.335.335,0,0,0-.335-.335m11.061,0a.335.335,0,1,0,.335.335.335.335,0,0,0-.335-.335m11.061,0a.335.335,0,1,0,.335.335.335.335,0,0,0-.335-.335m11.061,0a.335.335,0,1,0,.335.335.335.335,0,0,0-.335-.335m11.061,0a.335.335,0,1,0,.335.335.335.335,0,0,0-.335-.335m11.061,0a.335.335,0,1,0,.335.335.335.335,0,0,0-.335-.335m11.061,0a.335.335,0,1,0,.335.335.335.335,0,0,0-.335-.335m11.061,0a.335.335,0,1,0,.335.335.335.335,0,0,0-.335-.335m11.061,0a.335.335,0,1,0,.335.335.335.335,0,0,0-.335-.335m11.061,0a.335.335,0,1,0,.335.335.335.335,0,0,0-.335-.335m11.061,0a.335.335,0,1,0,.335.335.335.335,0,0,0-.335-.335m11.061,0a.335.335,0,1,0,.335.335.335.335,0,0,0-.335-.335m11.061,0a.335.335,0,1,0,.335.335.335.335,0,0,0-.335-.335m11.061,0a.335.335,0,1,0,.335.335.335.335,0,0,0-.335-.335m11.061,0a.335.335,0,1,0,.335.335.335.335,0,0,0-.335-.335M.335,140.775a.335.335,0,1,0,.335.335.335.335,0,0,0-.335-.335m11.061,0a.335.335,0,1,0,.335.335.335.335,0,0,0-.335-.335m11.061,0a.335.335,0,1,0,.335.335.335.335,0,0,0-.335-.335m11.061,0a.335.335,0,1,0,.335.335.335.335,0,0,0-.335-.335m11.061,0a.335.335,0,1,0,.335.335.335.335,0,0,0-.335-.335m11.061,0a.335.335,0,1,0,.335.335.335.335,0,0,0-.335-.335m11.061,0a.335.335,0,1,0,.335.335.335.335,0,0,0-.335-.335m11.061,0a.335.335,0,1,0,.335.335.335.335,0,0,0-.335-.335m11.061,0a.335.335,0,1,0,.335.335.335.335,0,0,0-.335-.335m11.061,0a.335.335,0,1,0,.335.335.335.335,0,0,0-.335-.335m11.061,0a.335.335,0,1,0,.335.335.335.335,0,0,0-.335-.335m11.061,0a.335.335,0,1,0,.335.335.335.335,0,0,0-.335-.335m11.061,0a.335.335,0,1,0,.335.335.335.335,0,0,0-.335-.335m11.061,0a.335.335,0,1,0,.335.335.335.335,0,0,0-.335-.335m11.061,0a.335.335,0,1,0,.335.335.335.335,0,0,0-.335-.335m11.061,0a.335.335,0,1,0,.335.335.335.335,0,0,0-.335-.335m11.061,0a.335.335,0,1,0,.335.335.335.335,0,0,0-.335-.335m11.061,0a.335.335,0,1,0,.335.335.335.335,0,0,0-.335-.335m11.061,0a.335.335,0,1,0,.335.335.335.335,0,0,0-.335-.335m11.061,0a.335.335,0,1,0,.335.335.335.335,0,0,0-.335-.335M.335,150.831a.335.335,0,1,0,.335.335.335.335,0,0,0-.335-.335m11.061,0a.335.335,0,1,0,.335.335.335.335,0,0,0-.335-.335m11.061,0a.335.335,0,1,0,.335.335.335.335,0,0,0-.335-.335m11.061,0a.335.335,0,1,0,.335.335.335.335,0,0,0-.335-.335m11.061,0a.335.335,0,1,0,.335.335.335.335,0,0,0-.335-.335m11.061,0a.335.335,0,1,0,.335.335.335.335,0,0,0-.335-.335m11.061,0a.335.335,0,1,0,.335.335.335.335,0,0,0-.335-.335m11.061,0a.335.335,0,1,0,.335.335.335.335,0,0,0-.335-.335m11.061,0a.335.335,0,1,0,.335.335.335.335,0,0,0-.335-.335m11.061,0a.335.335,0,1,0,.335.335.335.335,0,0,0-.335-.335m11.061,0a.335.335,0,1,0,.335.335.335.335,0,0,0-.335-.335m11.061,0a.335.335,0,1,0,.335.335.335.335,0,0,0-.335-.335m11.061,0a.335.335,0,1,0,.335.335.335.335,0,0,0-.335-.335m11.061,0a.335.335,0,1,0,.335.335.335.335,0,0,0-.335-.335m11.061,0a.335.335,0,1,0,.335.335.335.335,0,0,0-.335-.335m11.061,0a.335.335,0,1,0,.335.335.335.335,0,0,0-.335-.335m11.061,0a.335.335,0,1,0,.335.335.335.335,0,0,0-.335-.335m11.061,0a.335.335,0,1,0,.335.335.335.335,0,0,0-.335-.335m11.061,0a.335.335,0,1,0,.335.335.335.335,0,0,0-.335-.335m11.061,0a.335.335,0,1,0,.335.335.335.335,0,0,0-.335-.335M.335,160.886a.335.335,0,1,0,.335.335.335.335,0,0,0-.335-.335m11.061,0a.335.335,0,1,0,.335.335.335.335,0,0,0-.335-.335m11.061,0a.335.335,0,1,0,.335.335.335.335,0,0,0-.335-.335m11.061,0a.335.335,0,1,0,.335.335.335.335,0,0,0-.335-.335m11.061,0a.335.335,0,1,0,.335.335.335.335,0,0,0-.335-.335m11.061,0a.335.335,0,1,0,.335.335.335.335,0,0,0-.335-.335m11.061,0a.335.335,0,1,0,.335.335.335.335,0,0,0-.335-.335m11.061,0a.335.335,0,1,0,.335.335.335.335,0,0,0-.335-.335m11.061,0a.335.335,0,1,0,.335.335.335.335,0,0,0-.335-.335m11.061,0a.335.335,0,1,0,.335.335.335.335,0,0,0-.335-.335m11.061,0a.335.335,0,1,0,.335.335.335.335,0,0,0-.335-.335m11.061,0a.335.335,0,1,0,.335.335.335.335,0,0,0-.335-.335m11.061,0a.335.335,0,1,0,.335.335.335.335,0,0,0-.335-.335m11.061,0a.335.335,0,1,0,.335.335.335.335,0,0,0-.335-.335m11.061,0a.335.335,0,1,0,.335.335.335.335,0,0,0-.335-.335m11.061,0a.335.335,0,1,0,.335.335.335.335,0,0,0-.335-.335m11.061,0a.335.335,0,1,0,.335.335.335.335,0,0,0-.335-.335m11.061,0a.335.335,0,1,0,.335.335.335.335,0,0,0-.335-.335m11.061,0a.335.335,0,1,0,.335.335.335.335,0,0,0-.335-.335m11.061,0a.335.335,0,1,0,.335.335.335.335,0,0,0-.335-.335M.335,170.942a.335.335,0,1,0,.335.335.335.335,0,0,0-.335-.335m11.061,0a.335.335,0,1,0,.335.335.335.335,0,0,0-.335-.335m11.061,0a.335.335,0,1,0,.335.335.335.335,0,0,0-.335-.335m11.061,0a.335.335,0,1,0,.335.335.335.335,0,0,0-.335-.335m11.061,0a.335.335,0,1,0,.335.335.335.335,0,0,0-.335-.335m11.061,0a.335.335,0,1,0,.335.335.335.335,0,0,0-.335-.335m11.061,0a.335.335,0,1,0,.335.335.335.335,0,0,0-.335-.335m11.061,0a.335.335,0,1,0,.335.335.335.335,0,0,0-.335-.335m11.061,0a.335.335,0,1,0,.335.335.335.335,0,0,0-.335-.335m11.061,0a.335.335,0,1,0,.335.335.335.335,0,0,0-.335-.335m11.061,0a.335.335,0,1,0,.335.335.335.335,0,0,0-.335-.335m11.061,0a.335.335,0,1,0,.335.335.335.335,0,0,0-.335-.335m11.061,0a.335.335,0,1,0,.335.335.335.335,0,0,0-.335-.335m11.061,0a.335.335,0,1,0,.335.335.335.335,0,0,0-.335-.335m11.061,0a.335.335,0,1,0,.335.335.335.335,0,0,0-.335-.335m11.061,0a.335.335,0,1,0,.335.335.335.335,0,0,0-.335-.335m11.061,0a.335.335,0,1,0,.335.335.335.335,0,0,0-.335-.335m11.061,0a.335.335,0,1,0,.335.335.335.335,0,0,0-.335-.335m11.061,0a.335.335,0,1,0,.335.335.335.335,0,0,0-.335-.335m11.061,0a.335.335,0,1,0,.335.335.335.335,0,0,0-.335-.335" transform="translate(1167.133 283.293)" fill="#033d58" stroke="rgba(3,61,88,0.64)" stroke-width="1"></path>
    <g id="Group_59" data-name="Group 59" transform="translate(10.266)">
      <g transform="matrix(1, 0, 0, 1, 365.73, 100)" filter="url(#Rectangle_25)">
        <path id="Rectangle_25-2" data-name="Rectangle 25" d="M0,0H315a0,0,0,0,1,0,0V164a10,10,0,0,1-10,10H10A10,10,0,0,1,0,164V0A0,0,0,0,1,0,0Z" transform="translate(556 97)" fill="#fff"></path>
      </g>
      <path id="Subtraction_1" data-name="Subtraction 1" d="M315,24H0V10A10.011,10.011,0,0,1,10,0H305a10.011,10.011,0,0,1,10,10V24ZM33.834,9.143a3.429,3.429,0,1,0,3.5,3.429A3.469,3.469,0,0,0,33.834,9.143Zm-10.5,0a3.429,3.429,0,1,0,3.5,3.429A3.469,3.469,0,0,0,23.333,9.143Zm-10.5,0a3.429,3.429,0,1,0,3.5,3.429A3.469,3.469,0,0,0,12.833,9.143Z" transform="translate(921.734 174)" fill="#fafafa"></path>
    </g>
    <g id="Group_62" data-name="Group 62" transform="translate(403 -25)">
      <g transform="matrix(1, 0, 0, 1, -27, 125)" filter="url(#Ellipse_15)">
        <circle id="Ellipse_15-4" data-name="Ellipse 15" cx="24" cy="24" r="24" transform="translate(849 153)" fill="#fff"></circle>
      </g>
      <g id="bezier-curve-bold" transform="translate(830 286)">
        <rect id="Rectangle_28" data-name="Rectangle 28" width="32" height="32" fill="none"></rect>
        <line id="Line_9" data-name="Line 9" x2="11" transform="translate(2 10)" fill="none" stroke="#4b778b" stroke-linecap="round" stroke-linejoin="round" stroke-width="2"></line>
        <line id="Line_10" data-name="Line 10" x2="11" transform="translate(19 10)" fill="none" stroke="#4b778b" stroke-linecap="round" stroke-linejoin="round" stroke-width="2"></line>
        <circle id="Ellipse_10" data-name="Ellipse 10" cx="3" cy="3" r="3" transform="translate(13 7)" fill="none" stroke="#4b778b" stroke-linecap="round" stroke-linejoin="round" stroke-width="2"></circle>
        <circle id="Ellipse_11" data-name="Ellipse 11" cx="3" cy="3" r="3" transform="translate(2 19)" fill="none" stroke="#4b778b" stroke-linecap="round" stroke-linejoin="round" stroke-width="2"></circle>
        <circle id="Ellipse_12" data-name="Ellipse 12" cx="3" cy="3" r="3" transform="translate(24 19)" fill="none" stroke="#4b778b" stroke-linecap="round" stroke-linejoin="round" stroke-width="2"></circle>
        <path id="Path_10" data-name="Path 10" d="M151.8,83.3a11.013,11.013,0,0,1,7.85,8.587" transform="translate(-132.825 -72.887)" fill="none" stroke="#4b778b" stroke-linecap="round" stroke-linejoin="round" stroke-width="2"></path>
        <path id="Path_11" data-name="Path 11" d="M41.4,91.887A11.012,11.012,0,0,1,49.25,83.3" transform="translate(-36.225 -72.887)" fill="none" stroke="#4b778b" stroke-linecap="round" stroke-linejoin="round" stroke-width="2"></path>
      </g>
    </g>
    <g id="Group_63" data-name="Group 63" transform="translate(92 57)">
      <g transform="matrix(1, 0, 0, 1, 284, 43)" filter="url(#Ellipse_15-2)">
        <circle id="Ellipse_15-5" data-name="Ellipse 15" cx="24" cy="24" r="24" transform="translate(538 235)" fill="#fff"></circle>
      </g>
      <g id="eye-bold" transform="translate(830 286)">
        <rect id="Rectangle_29" data-name="Rectangle 29" width="32" height="32" fill="none"></rect>
        <path id="Path_12" data-name="Path 12" d="M30,56c-10,0-14,9-14,9s4,9,14,9,14-9,14-9S40,56,30,56Z" transform="translate(-14 -49)" fill="none" stroke="#4b778b" stroke-linecap="round" stroke-linejoin="round" stroke-width="2"></path>
        <circle id="Ellipse_13" data-name="Ellipse 13" cx="4" cy="4" r="4" transform="translate(12 12)" fill="none" stroke="#4b778b" stroke-linecap="round" stroke-linejoin="round" stroke-width="2"></circle>
      </g>
    </g>
    <g id="Group_64" data-name="Group 64" transform="translate(1318 719) rotate(180)">
      <g transform="matrix(-1, 0, 0, -1, 942, 619)" filter="url(#Ellipse_15-3)">
        <circle id="Ellipse_15-6" data-name="Ellipse 15" cx="24" cy="24" r="24" transform="translate(120 341) rotate(180)" fill="#fff"></circle>
      </g>
      <g id="pen-nib-straight-bold" transform="translate(830 286)">
        <rect id="Rectangle_30" data-name="Rectangle 30" width="32" height="32" fill="none"></rect>
        <line id="Line_11" data-name="Line 11" y2="11" transform="translate(16 19.5)" fill="none" stroke="#4b778b" stroke-linecap="round" stroke-linejoin="round" stroke-width="2"></line>
        <circle id="Ellipse_14" data-name="Ellipse 14" cx="3" cy="3" r="3" transform="translate(13 13.5)" fill="none" stroke="#4b778b" stroke-linecap="round" stroke-linejoin="round" stroke-width="2"></circle>
        <path id="Path_13" data-name="Path 13" d="M72,30V25a1,1,0,0,1,1-1H85a1,1,0,0,1,1,1v5" transform="translate(-63 -21)" fill="none" stroke="#4b778b" stroke-linecap="round" stroke-linejoin="round" stroke-width="2"></path>
        <path id="Path_14" data-name="Path 14" d="M46.188,72,42.5,79.475,53.188,93.5,63.875,79.475,60.188,72Z" transform="translate(-37.188 -63)" fill="none" stroke="#4b778b" stroke-linecap="round" stroke-linejoin="round" stroke-width="2"></path>
      </g>
    </g>
    <path id="Path_167" data-name="Path 167" d="M8.563-7.891l3.031-8.187,3.016,8.188Zm7.516,4L17.516,0h5.5L14.625-21.219H8.531L.156,0h5.5L7.094-3.891ZM40.063,0V-15H35.3l-.156,1.578a5.511,5.511,0,0,0-4.422-1.891c-4,0-6.937,3.344-6.937,7.828s2.938,7.8,6.938,7.8a5.464,5.464,0,0,0,4.422-1.891L35.3,0ZM31.891-10.937a3.213,3.213,0,0,1,3.234,3.453,3.2,3.2,0,0,1-3.234,3.453,3.2,3.2,0,0,1-3.234-3.453A3.2,3.2,0,0,1,31.891-10.937Z" transform="translate(962 243)" fill="#1a1a1a" opacity="0.4"></path>
    <g id="Group_66" data-name="Group 66" transform="translate(-1 -10)">
      <circle id="Ellipse_16" data-name="Ellipse 16" cx="8" cy="8" r="8" transform="translate(963 273)" fill="#1a1a1a"></circle>
      <circle id="Ellipse_16-2" data-name="Ellipse 16" cx="8" cy="8" r="8" transform="translate(987 273)" fill="#1a1a1a" opacity="0.8"></circle>
      <circle id="Ellipse_16-3" data-name="Ellipse 16" cx="8" cy="8" r="8" transform="translate(1011 273)" fill="#1a1a1a" opacity="0.6"></circle>
      <circle id="Ellipse_16-4" data-name="Ellipse 16" cx="8" cy="8" r="8" transform="translate(1035 273)" fill="#1a1a1a" opacity="0.4"></circle>
      <circle id="Ellipse_16-5" data-name="Ellipse 16" cx="8" cy="8" r="8" transform="translate(1059 273)" fill="#1a1a1a" opacity="0.2"></circle>
      <circle id="Ellipse_16-6" data-name="Ellipse 16" cx="8" cy="8" r="8" transform="translate(1083 273)" fill="#1a1a1a" opacity="0.1"></circle>
    </g>
    <g id="Group_65" data-name="Group 65" transform="translate(0 -8)">
      <g id="Group_67" data-name="Group 67" transform="translate(-1 -3)">
        <g id="Rectangle_31" data-name="Rectangle 31" transform="translate(963 304)" fill="rgba(182,229,226,0.5)" stroke="#033d58" stroke-width="1">
          <rect width="62" height="28" rx="4" stroke="none"></rect>
          <rect x="0.5" y="0.5" width="61" height="27" rx="3.5" fill="none"></rect>
        </g>
        <path id="Path_168" data-name="Path 168" d="M5.021,0A2.2,2.2,0,0,0,7.447-2.174a1.96,1.96,0,0,0-1.465-1.9,1.96,1.96,0,0,0,1.066-1.8A2.177,2.177,0,0,0,4.641-7.957H.662V0Zm-.5-3.24a.778.778,0,0,1,.838.826.789.789,0,0,1-.838.809H2.59V-3.24ZM4.207-6.346a.784.784,0,0,1,.838.814.748.748,0,0,1-.779.814H2.59V-6.346Zm7.711.721V-2.49A.864.864,0,0,1,11-1.564a.857.857,0,0,1-.855-.926V-5.625H8.3v3.311A2.446,2.446,0,0,0,11,.117a2.5,2.5,0,0,0,2.76-2.467V-5.625Zm6.773,1.506V-5.625H17.1v-1.8H15.316v1.8h-.9v1.506h.9V-2A1.961,1.961,0,0,0,17.537.117a4.816,4.816,0,0,0,1.494-.258l-.129-1.5c-.891.211-1.74.293-1.74-.662V-4.119Zm4.869,0V-5.625H21.973v-1.8H20.186v1.8h-.9v1.506h.9V-2A1.961,1.961,0,0,0,22.406.117,4.816,4.816,0,0,0,23.9-.141l-.129-1.5c-.891.211-1.74.293-1.74-.662V-4.119Zm3.715-1.623a2.9,2.9,0,0,0-3.023,2.93A2.9,2.9,0,0,0,27.275.117,2.9,2.9,0,0,0,30.3-2.812,2.9,2.9,0,0,0,27.275-5.742Zm0,1.635a1.2,1.2,0,0,1,1.2,1.295,1.2,1.2,0,0,1-1.2,1.295,1.2,1.2,0,0,1-1.2-1.295A1.2,1.2,0,0,1,27.275-4.107ZM36.732,0V-3.656a2.019,2.019,0,0,0-2.08-2.086,2.184,2.184,0,0,0-1.74.709l-.059-.592H31.16V0h1.846V-3.129a.893.893,0,0,1,.938-.926.907.907,0,0,1,.943.926V0Z" transform="translate(976 322)" fill="#033d58"></path>
      </g>
    </g>
    <rect id="Rectangle_167" data-name="Rectangle 167" width="121" height="52" transform="translate(828 419)" fill="none"></rect>
  </g>
</svg>